<?xml version="1.0" encoding="UTF-8" standalone="no"?>
<!DOCTYPE svg PUBLIC "-//W3C//DTD SVG 1.1//EN" "http://www.w3.org/Graphics/SVG/1.1/DTD/svg11.dtd">
<svg xmlns="http://www.w3.org/2000/svg" version="1.1" viewBox="0 0 1252 1675">
<g stroke-width="2.00" fill="none" stroke-linecap="butt">
<path stroke="#797979" vector-effect="non-scaling-stroke" d="
  M 1060.31 0.00
  L 1060.53 0.25
  A 0.35 0.35 0.0 0 1 1060.52 0.73
  L 808.04 253.25"
/>
<path stroke="#f2f2f2" vector-effect="non-scaling-stroke" d="
  M 808.04 253.25
  L 807.83 252.54
  Q 807.73 252.22 807.56 252.50
  Q 807.28 252.97 806.37 252.58"
/>
<path stroke="#d3d3d3" vector-effect="non-scaling-stroke" d="
  M 806.37 252.58
  Q 924.82 134.30 1043.06 15.81
  C 1044.50 14.36 1056.81 2.74 1056.75 2.07
  A 0.62 0.62 0.0 0 0 1056.13 1.50
  L 2.28 1.50
  A 0.50 0.50 0.0 0 0 1.78 1.97
  C 1.18 11.73 1.75 24.48 1.75 31.16
  Q 1.76 520.80 1.74 1010.44
  Q 1.74 1038.35 1.56 1051.66
  C 1.55 1053.15 1.91 1055.06 1.71 1056.82
  Q 1.54 1058.25 2.48 1057.16
  Q 4.21 1055.18 6.07 1053.31
  Q 98.40 960.64 190.97 868.22
  Q 194.28 864.92 197.71 861.75"
/>
<path stroke="#f2f2f2" vector-effect="non-scaling-stroke" d="
  M 197.71 861.75
  L 197.62 862.47
  A 0.36 0.36 0.0 0 0 198.03 862.87
  L 198.50 862.79"
/>
<path stroke="#797979" vector-effect="non-scaling-stroke" d="
  M 198.50 862.79
  L 0.84 1060.66
  A 0.38 0.38 0.0 0 1 0.25 1060.59
  L 0.00 1060.19"
/>
<path stroke="#797979" vector-effect="non-scaling-stroke" d="
  M 1188.56 0.00
  L 865.83 322.66
  A 0.50 0.50 0.0 0 0 865.83 323.37
  C 922.82 380.46 979.63 437.77 1036.75 494.73
  A 0.50 0.49 44.6 0 1 1036.76 495.43
  L 978.96 553.50"
/>
<path stroke="#5a5a5a" vector-effect="non-scaling-stroke" d="
  M 978.96 553.50
  L 968.05 564.20
  A 0.52 0.52 0.0 0 1 967.32 564.20
  L 537.18 134.06
  A 0.45 0.44 -44.6 0 0 536.55 134.06
  L 435.05 235.58
  A 0.52 0.52 0.0 0 0 435.04 236.31
  Q 447.69 249.74 460.96 262.25"
/>
<path stroke="#797979" vector-effect="non-scaling-stroke" d="
  M 460.96 262.25
  L 974.50 776.04"
/>
<path stroke="#5a5a5a" vector-effect="non-scaling-stroke" d="
  M 974.50 776.04
  L 981.97 784.14
  A 0.57 0.56 -44.6 0 1 981.96 784.92
  L 901.29 865.58
  A 0.59 0.58 44.7 0 1 900.46 865.58
  C 804.36 769.49 708.82 672.72 612.09 577.30
  A 0.56 0.54 44.3 0 0 611.31 577.30
  L 578.83 609.81
  A 0.53 0.52 46.2 0 0 578.82 610.55
  Q 587.29 619.15 595.80 627.69
  Q 747.99 780.44 900.52 932.84
  A 0.53 0.53 0.0 0 0 901.28 932.84
  L 1049.55 784.58
  A 0.42 0.42 0.0 0 0 1049.55 783.98
  L 502.34 236.69
  A 0.93 0.93 0.0 0 1 502.34 235.37
  L 536.57 201.27
  A 0.49 0.49 0.0 0 1 537.27 201.27
  L 966.91 631.07
  A 0.98 0.98 0.0 0 0 968.30 631.07
  L 1103.94 495.44
  A 0.63 0.63 0.0 0 0 1103.94 494.56
  L 955.05 345.68
  A 0.47 0.46 45.4 0 1 955.05 345.03
  L 1184.64 115.21
  Q 1185.20 114.65 1185.20 115.45
  L 1185.37 665.79
  Q 1185.37 665.97 1185.31 666.14
  Q 1185.25 666.29 1185.25 666.50
  Q 1185.25 926.07 1185.25 1185.55
  A 0.45 0.45 0.0 0 1 1184.80 1186.00
  L 114.87 1186.00
  Q 114.13 1186.00 114.65 1185.48
  L 274.68 1025.44
  A 0.52 0.52 0.0 0 0 274.68 1024.70
  L 229.04 979.25"
/>
<path stroke="#797979" vector-effect="non-scaling-stroke" d="
  M 229.04 979.25
  L 219.74 969.59
  A 0.47 0.47 0.0 0 0 219.07 969.58
  L 17.96 1170.75"
/>
<path stroke="#5a5a5a" vector-effect="non-scaling-stroke" d="
  M 17.96 1170.75
  L 0.00 1188.69"
/>
<path stroke="#797979" vector-effect="non-scaling-stroke" d="
  M 198.50 862.79
  L 210.81 850.54
  A 0.48 0.47 44.6 0 1 211.48 850.54
  L 411.06 1050.19
  A 0.45 0.45 0.0 0 0 411.69 1050.19
  L 523.50 938.38
  A 0.54 0.54 0.0 0 0 523.50 937.62
  L 235.06 649.19
  A 0.54 0.53 45.4 0 1 235.06 648.44
  L 286.21 597.50"
/>
<path stroke="#797979" vector-effect="non-scaling-stroke" d="
  M 286.21 597.50
  L 643.55 954.90
  A 0.79 0.79 0.0 0 0 644.67 954.90
  L 746.12 853.47
  A 0.52 0.52 0.0 0 0 746.12 852.74
  L 220.88 327.50
  A 0.52 0.51 -45.4 0 1 220.88 326.77
  L 257.41 290.18
  A 0.45 0.45 0.0 0 1 258.05 290.18
  L 514.06 546.18
  A 0.44 0.44 0.0 0 0 514.68 546.18
  L 547.61 513.31
  A 0.47 0.47 0.0 0 0 547.61 512.64
  C 455.54 420.40 362.91 328.68 271.04 236.25"
/>
<path stroke="#797979" vector-effect="non-scaling-stroke" d="
  M 271.04 236.25
  L 257.94 222.97
  A 0.36 0.36 0.0 0 0 257.42 222.97
  L 153.78 326.64
  A 0.49 0.48 45.4 0 0 153.78 327.33
  L 678.81 852.69
  A 0.62 0.61 45.3 0 1 678.81 853.56
  L 644.43 887.94
  A 0.45 0.44 -44.6 0 1 643.80 887.94
  L 286.46 530.58
  A 0.48 0.48 0.0 0 0 285.78 530.58
  L 269.25 547.21"
/>
<path stroke="#797979" vector-effect="non-scaling-stroke" d="
  M 269.25 547.21
  L 167.96 648.43
  A 0.49 0.48 45.4 0 0 167.96 649.12
  Q 373.13 854.17 453.30 934.45
  Q 454.49 935.64 456.24 937.90
  A 0.60 0.60 0.0 0 1 456.19 938.69
  L 411.87 983.00
  A 0.52 0.52 0.0 0 1 411.13 983.00
  L 199.56 771.44
  A 0.62 0.62 0.0 0 0 198.68 771.44
  L 58.69 911.44
  Q 58.25 911.88 58.25 911.25
  L 58.25 59.53
  A 0.50 0.50 0.0 0 1 58.72 59.03
  C 68.48 58.43 81.22 59.00 87.90 59.00
  Q 494.17 59.01 900.44 58.78
  Q 905.54 58.78 910.45 58.92
  Q 910.95 58.93 910.59 59.28
  L 756.69 213.19
  A 0.79 0.79 0.0 0 0 756.69 214.31
  L 801.53 259.16
  A 0.48 0.48 0.0 0 0 802.21 259.16
  L 808.04 253.25"
/>
<path stroke="#d3d3d3" vector-effect="non-scaling-stroke" d="
  M 1243.31 0.00
  Q 1243.54 0.30 1243.90 0.32
  A 0.37 0.37 0.0 0 1 1244.25 0.68
  L 1244.26 1.04
  A 0.19 0.19 0.0 0 1 1244.07 1.23
  L 1189.54 1.28
  A 1.19 1.18 21.2 0 0 1188.67 1.66
  C 1185.20 5.38 1180.69 9.37 1177.76 12.30
  Q 1085.85 104.24 993.98 196.23
  C 952.32 237.94 910.36 279.62 868.56 322.06
  A 1.42 1.41 45.1 0 0 868.56 324.05
  Q 947.15 403.23 1026.93 482.32
  Q 1032.08 487.43 1038.16 492.79
  Q 1040.21 494.59 1038.24 496.48
  Q 1008.71 524.74 980.16 553.98
  A 0.78 0.78 0.0 0 1 979.09 554.03
  Q 978.96 553.91 978.96 553.50"
/>
<path stroke="#5a5a5a" vector-effect="non-scaling-stroke" d="
  M 1245.99 0.00
  L 1245.97 1245.71
  A 0.50 0.50 0.0 0 1 1245.47 1246.21
  L 0.00 1246.19"
/>
<path stroke="#d3d3d3" vector-effect="non-scaling-stroke" d="
  M 17.96 1170.75
  C 18.69 1171.10 19.32 1171.04 19.93 1170.43
  Q 118.86 1071.23 218.10 972.20
  A 1.04 1.04 0.0 0 1 219.44 972.08
  Q 223.83 975.21 227.19 979.36
  A 0.93 0.90 -23.4 0 0 228.06 979.69
  Q 228.62 979.60 229.04 979.25"
/>
<path stroke="#d3d3d3" vector-effect="non-scaling-stroke" d="
  M 974.50 776.04
  Q 933.08 731.05 889.13 688.50
  Q 881.10 680.72 874.88 674.47
  C 737.78 536.64 600.18 399.27 462.54 261.98
  A 1.00 0.98 -27.2 0 0 461.67 261.71
  Q 461.19 261.80 460.96 262.25"
/>
<path stroke="#797979" vector-effect="non-scaling-stroke" d="
  M 70.19 1505.72
  L 70.12 1476.88
  A 0.41 0.41 0.0 0 0 69.62 1476.48
  L 41.84 1482.90
  A 0.69 0.67 -5.7 0 0 41.31 1483.53
  C 40.34 1502.21 42.08 1525.52 64.40 1530.23
  C 69.54 1531.31 76.12 1532.25 82.00 1532.26
  Q 141.03 1532.32 200.06 1532.18
  Q 210.76 1532.16 221.44 1527.50
  C 232.84 1522.52 235.53 1508.56 236.23 1497.54
  Q 237.42 1478.50 236.36 1459.44
  C 235.64 1446.51 232.77 1432.55 219.18 1427.28
  Q 209.44 1423.50 197.00 1423.50
  Q 136.80 1423.49 76.70 1423.50
  A 0.45 0.45 0.0 0 1 76.25 1423.05
  L 76.25 1371.81
  A 0.31 0.31 0.0 0 1 76.56 1371.50
  L 207.38 1371.50
  A 0.63 0.63 0.0 0 1 208.01 1372.13
  L 207.98 1397.85
  A 0.49 0.48 82.0 0 0 208.60 1398.32
  L 233.92 1391.10
  A 0.73 0.73 0.0 0 0 234.45 1390.44
  C 235.98 1362.29 226.15 1346.64 196.50 1346.30
  Q 141.87 1345.69 87.25 1346.35
  C 60.38 1346.67 49.36 1356.95 48.66 1383.82
  C 48.25 1399.82 46.81 1418.53 52.71 1433.56
  C 58.76 1448.94 77.38 1450.45 91.50 1450.46
  Q 149.97 1450.52 208.42 1450.50
  A 0.33 0.32 -0.0 0 1 208.75 1450.82
  L 208.75 1505.64
  A 0.59 0.58 90.0 0 1 208.17 1506.23
  L 70.78 1506.31
  A 0.59 0.59 0.0 0 1 70.19 1505.72"
/>
<path stroke="#797979" vector-effect="non-scaling-stroke" d="
  M 474.91 1487.28
  L 498.10 1531.84
  A 0.81 0.80 75.7 0 0 498.81 1532.27
  L 531.96 1532.25
  A 0.39 0.39 0.0 0 0 532.30 1531.67
  L 429.59 1346.69
  A 0.85 0.84 -14.3 0 0 428.85 1346.26
  L 396.33 1346.24
  A 0.88 0.87 14.4 0 0 395.56 1346.69
  L 294.69 1531.57
  A 0.46 0.46 0.0 0 0 295.09 1532.25
  L 324.58 1532.25
  A 0.82 0.81 -76.0 0 0 325.30 1531.81
  L 348.51 1487.25
  A 0.87 0.86 -76.5 0 1 349.28 1486.77
  C 380.69 1486.52 412.10 1486.83 443.50 1486.69
  C 453.71 1486.65 463.94 1486.51 474.14 1486.80
  A 0.88 0.88 0.0 0 1 474.91 1487.28"
/>
<path stroke="#797979" vector-effect="non-scaling-stroke" d="
  M 737.12 1487.27
  L 760.26 1531.78
  A 0.88 0.87 75.6 0 0 761.03 1532.24
  L 794.14 1532.27
  A 0.41 0.40 75.5 0 0 794.49 1531.67
  L 691.86 1346.81
  A 1.05 1.03 75.0 0 0 690.96 1346.28
  L 659.09 1346.20
  A 1.81 1.80 -75.3 0 0 657.49 1347.14
  L 556.76 1531.79
  A 0.31 0.31 0.0 0 0 557.03 1532.24
  L 586.84 1532.27
  A 0.68 0.67 -76.2 0 0 587.44 1531.90
  L 610.75 1487.20
  A 0.87 0.85 -76.2 0 1 611.49 1486.74
  C 653.04 1486.36 694.82 1486.25 736.37 1486.80
  A 0.88 0.86 76.5 0 1 737.12 1487.27"
/>
<path stroke="#797979" vector-effect="non-scaling-stroke" d="
  M 896.09 1428.45
  L 824.35 1346.65
  A 1.14 1.14 0.0 0 0 823.49 1346.26
  L 785.61 1346.14
  Q 785.15 1346.14 785.45 1346.48
  L 879.02 1450.51
  A 1.90 1.89 24.3 0 1 879.50 1451.77
  L 879.50 1531.77
  A 0.52 0.51 0.0 0 0 880.02 1532.28
  L 909.98 1532.23
  A 0.47 0.46 -0.0 0 0 910.45 1531.77
  L 910.65 1451.01
  A 1.37 1.36 -24.3 0 1 911.00 1450.10
  L 1003.96 1346.41
  Q 1004.39 1345.93 1003.74 1345.95
  Q 988.62 1346.37 973.36 1346.24
  C 971.52 1346.22 968.80 1345.62 966.38 1346.33
  A 1.75 1.74 11.5 0 0 965.56 1346.87
  L 896.98 1428.44
  A 0.59 0.59 0.0 0 1 896.09 1428.45"
/>
<path stroke="#797979" vector-effect="non-scaling-stroke" d="
  M 1048.81 1486.91
  A 0.31 0.31 0.0 0 1 1049.09 1486.74
  L 1174.58 1486.75
  A 0.31 0.31 0.0 0 1 1174.86 1486.92
  L 1198.35 1532.09
  A 0.31 0.31 0.0 0 0 1198.63 1532.26
  L 1232.21 1532.26
  A 0.31 0.31 0.0 0 0 1232.48 1531.80
  L 1129.57 1346.44
  A 0.31 0.31 0.0 0 0 1129.30 1346.28
  L 1096.13 1346.18
  A 0.31 0.31 0.0 0 0 1095.86 1346.34
  L 994.68 1531.78
  A 0.31 0.31 0.0 0 0 994.95 1532.24
  L 1024.99 1532.27
  A 0.31 0.31 0.0 0 0 1025.27 1532.10
  L 1048.81 1486.91"
/>
<path stroke="#4d4d4d" vector-effect="non-scaling-stroke" d="
  M 503.95 1579.54
  A 6.31 6.31 0.0 0 0 497.64 1573.23
  L 30.66 1573.23
  A 6.31 6.31 0.0 0 0 24.35 1579.54
  L 24.35 1579.94
  A 6.31 6.31 0.0 0 0 30.66 1586.25
  L 497.64 1586.25
  A 6.31 6.31 0.0 0 0 503.95 1579.94
  L 503.95 1579.54"
/>
<path stroke="#4d4d4d" vector-effect="non-scaling-stroke" d="
  M 1251.77 1579.60
  A 6.58 6.58 0.0 0 0 1245.19 1573.02
  L 758.29 1573.02
  A 6.58 6.58 0.0 0 0 751.71 1579.60
  L 751.71 1579.68
  A 6.58 6.58 0.0 0 0 758.29 1586.26
  L 1245.19 1586.26
  A 6.58 6.58 0.0 0 0 1251.77 1579.68
  L 1251.77 1579.60"
/>
<path stroke="#4d4d4d" vector-effect="non-scaling-stroke" d="
  M 537.13 1579.75
  A 6.55 6.55 0.0 0 0 530.58 1573.20
  A 6.55 6.55 0.0 0 0 524.03 1579.75
  A 6.55 6.55 0.0 0 0 530.58 1586.30
  A 6.55 6.55 0.0 0 0 537.13 1579.75"
/>
<path stroke="#4d4d4d" vector-effect="non-scaling-stroke" d="
  M 585.48 1579.75
  A 6.55 6.55 0.0 0 0 578.93 1573.20
  A 6.55 6.55 0.0 0 0 572.38 1579.75
  A 6.55 6.55 0.0 0 0 578.93 1586.30
  A 6.55 6.55 0.0 0 0 585.48 1579.75"
/>
<path stroke="#4d4d4d" vector-effect="non-scaling-stroke" d="
  M 633.89 1579.73
  A 6.56 6.56 0.0 0 0 627.33 1573.17
  A 6.56 6.56 0.0 0 0 620.77 1579.73
  A 6.56 6.56 0.0 0 0 627.33 1586.29
  A 6.56 6.56 0.0 0 0 633.89 1579.73"
/>
<path stroke="#4d4d4d" vector-effect="non-scaling-stroke" d="
  M 682.24 1579.74
  A 6.55 6.55 0.0 0 0 675.69 1573.19
  A 6.55 6.55 0.0 0 0 669.14 1579.74
  A 6.55 6.55 0.0 0 0 675.69 1586.29
  A 6.55 6.55 0.0 0 0 682.24 1579.74"
/>
<path stroke="#4d4d4d" vector-effect="non-scaling-stroke" d="
  M 730.62 1579.75
  A 6.55 6.55 0.0 0 0 724.07 1573.20
  A 6.55 6.55 0.0 0 0 717.52 1579.75
  A 6.55 6.55 0.0 0 0 724.07 1586.30
  A 6.55 6.55 0.0 0 0 730.62 1579.75"
/>
<path stroke="#5a5a5a" vector-effect="non-scaling-stroke" d="
  M 70.03 1648.02
  A 0.33 0.33 0.0 0 1 70.32 1648.20
  L 75.04 1657.32
  A 0.33 0.33 0.0 0 0 75.33 1657.50
  L 81.67 1657.51
  A 0.33 0.33 0.0 0 0 81.96 1657.02
  L 61.08 1619.42
  A 0.33 0.33 0.0 0 0 60.80 1619.25
  L 54.42 1619.25
  A 0.33 0.33 0.0 0 0 54.13 1619.42
  L 33.61 1657.01
  A 0.33 0.33 0.0 0 0 33.90 1657.50
  L 39.45 1657.50
  A 0.33 0.33 0.0 0 0 39.74 1657.32
  L 44.55 1648.17
  A 0.33 0.33 0.0 0 1 44.84 1647.99
  L 70.03 1648.02"
/>
<path stroke="#5a5a5a" vector-effect="non-scaling-stroke" d="
  M 120.49 1642.75
  C 127.97 1641.71 133.03 1644.35 133.02 1633.88
  C 133.01 1623.48 134.47 1619.26 121.79 1619.17
  Q 108.45 1619.07 94.83 1619.37
  A 0.62 0.62 0.0 0 0 94.22 1619.99
  L 94.39 1656.82
  A 0.69 0.69 0.0 0 0 95.08 1657.50
  L 100.25 1657.50
  A 0.50 0.50 0.0 0 0 100.75 1657.00
  L 100.75 1643.00
  A 0.50 0.50 0.0 0 1 101.25 1642.50
  L 111.34 1642.50
  A 1.25 1.23 66.4 0 1 112.19 1642.84
  L 127.11 1657.17
  A 1.21 1.20 -22.8 0 0 127.95 1657.51
  L 136.06 1657.49
  Q 136.92 1657.48 136.26 1656.92
  L 120.33 1643.29
  Q 119.80 1642.84 120.49 1642.75"
/>
<path stroke="#5a5a5a" vector-effect="non-scaling-stroke" d="
  M 182.26 1652.23
  L 157.12 1651.93
  A 0.62 0.62 0.0 0 1 156.50 1651.31
  L 156.50 1625.00
  A 0.50 0.50 0.0 0 1 157.00 1624.50
  L 182.25 1624.50
  A 0.50 0.50 0.0 0 1 182.75 1625.00
  L 182.75 1632.79
  A 0.46 0.45 84.3 0 0 183.29 1633.24
  L 188.65 1632.17
  A 0.71 0.71 0.0 0 0 189.22 1631.54
  C 189.71 1626.24 189.35 1619.94 183.43 1619.57
  Q 171.08 1618.79 157.68 1619.56
  C 153.10 1619.82 150.28 1621.43 150.26 1626.26
  Q 150.22 1638.24 150.32 1650.28
  Q 150.37 1657.20 157.42 1657.36
  Q 172.55 1657.69 183.75 1657.28
  C 189.83 1657.05 189.66 1648.47 189.14 1644.44
  A 0.79 0.78 -88.5 0 0 188.52 1643.78
  L 183.38 1642.68
  A 0.52 0.52 0.0 0 0 182.75 1643.19
  L 182.75 1651.74
  A 0.49 0.48 -89.4 0 1 182.26 1652.23"
/>
<path stroke="#5a5a5a" vector-effect="non-scaling-stroke" d="
  M 242.25 1634.41
  A 0.56 0.56 0.0 0 1 241.69 1634.97
  L 212.78 1635.02
  A 0.56 0.56 0.0 0 1 212.22 1634.46
  L 212.30 1619.81
  A 0.56 0.56 0.0 0 0 211.74 1619.25
  L 206.56 1619.25
  A 0.56 0.56 0.0 0 0 206.00 1619.81
  L 206.00 1656.94
  A 0.56 0.56 0.0 0 0 206.56 1657.50
  L 211.74 1657.50
  A 0.56 0.56 0.0 0 0 212.30 1656.94
  L 212.23 1640.81
  A 0.56 0.56 0.0 0 1 212.79 1640.25
  L 241.69 1640.25
  A 0.56 0.56 0.0 0 1 242.25 1640.81
  L 242.25 1656.94
  A 0.56 0.56 0.0 0 0 242.81 1657.50
  L 248.19 1657.50
  A 0.56 0.56 0.0 0 0 248.75 1656.94
  L 248.75 1619.81
  A 0.56 0.56 0.0 0 0 248.19 1619.25
  L 242.81 1619.25
  A 0.56 0.56 0.0 0 0 242.25 1619.81
  L 242.25 1634.41"
/>
<path stroke="#5a5a5a" vector-effect="non-scaling-stroke" d="
  M 275.00 1619.78
  A 0.52 0.52 0.0 0 0 274.48 1619.26
  L 269.02 1619.26
  A 0.52 0.52 0.0 0 0 268.50 1619.78
  L 268.50 1656.98
  A 0.52 0.52 0.0 0 0 269.02 1657.50
  L 274.48 1657.50
  A 0.52 0.52 0.0 0 0 275.00 1656.98
  L 275.00 1619.78"
/>
<path stroke="#5a5a5a" vector-effect="non-scaling-stroke" d="
  M 309.50 1624.84
  A 0.34 0.34 0.0 0 1 309.84 1624.50
  L 326.66 1624.50
  A 0.34 0.34 0.0 0 0 327.00 1624.16
  L 327.00 1619.63
  A 0.34 0.34 0.0 0 0 326.66 1619.29
  L 286.05 1619.26
  A 0.34 0.34 0.0 0 0 285.71 1619.60
  L 285.69 1624.16
  A 0.34 0.34 0.0 0 0 286.03 1624.50
  L 302.68 1624.50
  A 0.34 0.34 0.0 0 1 303.02 1624.84
  L 302.99 1657.16
  A 0.34 0.34 0.0 0 0 303.33 1657.50
  L 309.16 1657.50
  A 0.34 0.34 0.0 0 0 309.50 1657.16
  L 309.50 1624.84"
/>
<path stroke="#5a5a5a" vector-effect="non-scaling-stroke" d="
  M 344.39 1635.00
  A 0.39 0.39 0.0 0 1 344.00 1634.61
  L 344.00 1624.89
  A 0.39 0.39 0.0 0 1 344.39 1624.50
  L 373.86 1624.50
  A 0.39 0.39 0.0 0 0 374.25 1624.11
  L 374.25 1619.64
  A 0.39 0.39 0.0 0 0 373.86 1619.25
  L 337.89 1619.25
  A 0.39 0.39 0.0 0 0 337.50 1619.64
  L 337.50 1657.11
  A 0.39 0.39 0.0 0 0 337.89 1657.50
  L 374.11 1657.50
  A 0.39 0.39 0.0 0 0 374.50 1657.11
  L 374.50 1652.64
  A 0.39 0.39 0.0 0 0 374.11 1652.25
  L 344.39 1652.25
  A 0.39 0.39 0.0 0 1 344.00 1651.86
  L 344.00 1640.38
  A 0.39 0.39 0.0 0 1 344.39 1639.99
  L 362.11 1640.03
  A 0.39 0.39 0.0 0 0 362.50 1639.64
  L 362.50 1635.39
  A 0.39 0.39 0.0 0 0 362.11 1635.00
  L 344.39 1635.00"
/>
<path stroke="#5a5a5a" vector-effect="non-scaling-stroke" d="
  M 395.75 1651.47
  L 395.75 1625.00
  A 0.50 0.50 0.0 0 1 396.25 1624.50
  L 421.37 1624.50
  A 0.63 0.63 0.0 0 1 422.00 1625.13
  L 422.00 1632.77
  A 0.44 0.43 85.0 0 0 422.51 1633.20
  L 427.71 1632.23
  A 0.72 0.70 86.9 0 0 428.28 1631.58
  C 428.64 1627.02 428.81 1620.13 422.56 1619.71
  Q 409.62 1618.83 396.67 1619.55
  C 392.10 1619.80 389.34 1621.49 389.29 1626.26
  Q 389.15 1638.60 389.50 1650.93
  Q 389.67 1656.67 394.74 1657.28
  Q 400.57 1657.97 421.31 1657.49
  C 428.94 1657.31 428.28 1650.78 428.34 1644.43
  A 0.66 0.65 -83.7 0 0 427.82 1643.77
  L 422.57 1642.72
  A 0.47 0.47 0.0 0 0 422.01 1643.18
  L 421.99 1651.64
  A 0.49 0.49 0.0 0 1 421.49 1652.13
  L 396.22 1651.94
  A 0.47 0.47 0.0 0 1 395.75 1651.47"
/>
<path stroke="#5a5a5a" vector-effect="non-scaling-stroke" d="
  M 436.00 1624.10
  A 0.40 0.40 0.0 0 0 436.40 1624.50
  L 453.10 1624.50
  A 0.40 0.40 0.0 0 1 453.50 1624.90
  L 453.50 1657.10
  A 0.40 0.40 0.0 0 0 453.90 1657.50
  L 459.35 1657.50
  A 0.40 0.40 0.0 0 0 459.75 1657.10
  L 459.75 1624.90
  A 0.40 0.40 0.0 0 1 460.15 1624.50
  L 476.85 1624.50
  A 0.40 0.40 0.0 0 0 477.25 1624.10
  L 477.25 1619.75
  A 0.40 0.40 0.0 0 0 476.85 1619.35
  L 436.39 1619.28
  A 0.40 0.40 0.0 0 0 435.99 1619.68
  L 436.00 1624.10"
/>
<path stroke="#5a5a5a" vector-effect="non-scaling-stroke" d="
  M 520.50 1625.00
  L 520.50 1629.58
  A 0.45 0.45 0.0 0 0 521.08 1630.01
  L 525.42 1628.67
  A 0.84 0.82 -5.1 0 0 526.00 1627.99
  C 526.83 1621.93 523.47 1619.82 517.86 1619.52
  Q 506.35 1618.89 494.82 1619.54
  C 490.89 1619.76 488.55 1621.19 488.20 1625.19
  C 487.84 1629.31 486.69 1639.23 492.24 1640.21
  C 500.84 1641.74 511.34 1640.70 520.21 1640.83
  A 0.54 0.53 1.1 0 1 520.74 1641.37
  L 520.69 1651.62
  A 0.62 0.62 0.0 0 1 520.07 1652.23
  L 492.85 1652.20
  A 0.60 0.60 0.0 0 1 492.25 1651.60
  L 492.25 1646.54
  A 0.43 0.42 -7.0 0 0 491.72 1646.13
  L 487.16 1647.22
  A 0.80 0.79 -3.2 0 0 486.56 1647.89
  C 485.33 1657.96 492.09 1657.42 499.87 1657.50
  C 504.75 1657.54 521.07 1658.72 524.34 1655.68
  C 527.18 1653.04 526.85 1643.10 526.17 1640.52
  Q 524.82 1635.35 518.74 1635.31
  Q 506.50 1635.22 494.28 1635.23
  A 0.53 0.53 0.0 0 1 493.75 1634.71
  L 493.54 1625.11
  A 0.60 0.59 -0.9 0 1 494.14 1624.50
  L 520.00 1624.50
  A 0.50 0.50 0.0 0 1 520.50 1625.00"
/>
<path stroke="#5a5a5a" vector-effect="non-scaling-stroke" d="
  M 605.76 1647.21
  L 613.45 1639.95
  A 0.62 0.62 0.0 0 0 613.45 1639.05
  L 611.08 1636.79
  A 0.67 0.66 -44.7 0 0 610.17 1636.79
  L 602.14 1644.27
  A 0.62 0.61 -46.8 0 1 601.32 1644.30
  L 583.87 1629.94
  A 1.11 1.08 -72.1 0 1 583.47 1629.13
  L 583.33 1624.59
  A 0.57 0.57 0.0 0 1 583.90 1624.00
  L 597.12 1624.00
  A 0.63 0.62 -0.0 0 1 597.75 1624.62
  L 597.75 1629.67
  A 0.36 0.35 -4.9 0 0 598.17 1630.01
  L 602.18 1629.33
  A 0.60 0.59 89.4 0 0 602.67 1628.82
  Q 603.13 1625.65 602.10 1622.66
  Q 601.27 1620.23 598.72 1619.88
  C 594.20 1619.27 580.49 1617.51 578.56 1623.25
  Q 576.53 1629.26 580.43 1633.93
  A 0.47 0.46 -37.6 0 1 580.34 1634.60
  Q 576.80 1637.10 573.07 1639.32
  C 567.58 1642.57 568.60 1651.29 571.29 1655.71
  A 1.45 1.39 83.7 0 0 572.01 1656.31
  C 577.78 1658.45 586.14 1657.53 592.29 1657.45
  Q 595.02 1657.42 597.01 1655.54
  L 601.26 1651.54
  A 0.72 0.72 0.0 0 1 602.21 1651.50
  L 609.18 1657.19
  A 1.46 1.45 64.2 0 0 610.09 1657.51
  L 616.88 1657.49
  Q 617.54 1657.48 617.03 1657.06
  L 605.78 1647.93
  A 0.48 0.48 0.0 0 1 605.76 1647.21"
/>
<path stroke="#5a5a5a" vector-effect="non-scaling-stroke" d="
  M 663.75 1651.49
  L 663.75 1625.00
  A 0.50 0.50 0.0 0 1 664.25 1624.50
  L 689.37 1624.50
  A 0.63 0.62 -0.0 0 1 690.00 1625.12
  L 690.00 1632.58
  A 0.52 0.52 0.0 0 0 690.60 1633.09
  L 695.87 1632.26
  A 0.63 0.62 88.9 0 0 696.40 1631.70
  C 696.80 1627.75 696.64 1620.25 691.50 1619.69
  Q 681.55 1618.61 664.24 1619.49
  Q 657.56 1619.83 657.40 1626.58
  Q 657.13 1638.03 657.28 1649.52
  C 657.40 1657.99 662.82 1657.35 669.91 1657.47
  Q 679.49 1657.63 689.05 1657.37
  C 696.94 1657.14 696.77 1651.23 696.48 1644.45
  A 0.70 0.70 0.0 0 0 695.92 1643.80
  L 690.57 1642.72
  A 0.48 0.47 -84.1 0 0 690.00 1643.19
  L 690.00 1651.39
  A 0.65 0.65 0.0 0 1 689.35 1652.04
  L 664.24 1651.98
  A 0.49 0.49 0.0 0 1 663.75 1651.49"
/>
<path stroke="#5a5a5a" vector-effect="non-scaling-stroke" d="
  M 712.62 1646.69
  C 712.91 1653.55 712.90 1657.36 721.26 1657.45
  Q 735.41 1657.61 749.56 1657.49
  Q 755.85 1657.44 756.55 1652.02
  Q 757.21 1646.92 756.69 1626.19
  C 756.57 1621.52 753.88 1619.78 749.35 1619.55
  Q 734.64 1618.81 719.92 1619.55
  C 715.97 1619.75 713.14 1621.19 712.84 1625.31
  Q 712.13 1634.96 712.62 1646.69"
/>
<path stroke="#5a5a5a" vector-effect="non-scaling-stroke" d="
  M 782.18 1627.91
  Q 797.70 1642.46 813.65 1656.53
  C 814.92 1657.65 816.27 1657.89 817.77 1657.27
  A 0.80 0.78 78.9 0 0 818.25 1656.54
  L 818.25 1619.75
  A 0.50 0.50 0.0 0 0 817.75 1619.25
  L 812.83 1619.25
  A 0.67 0.67 0.0 0 0 812.16 1619.92
  L 812.46 1648.27
  Q 812.46 1648.52 812.27 1648.35
  Q 796.96 1634.21 781.30 1620.45
  C 779.60 1618.95 778.71 1618.97 776.57 1619.44
  A 0.69 0.69 0.0 0 0 776.03 1620.11
  L 776.01 1656.91
  A 0.59 0.59 0.0 0 0 776.60 1657.50
  L 781.26 1657.50
  A 0.77 0.76 0.0 0 0 782.03 1656.74
  L 782.02 1627.98
  Q 782.02 1627.76 782.18 1627.91"
/>
<path stroke="#5a5a5a" vector-effect="non-scaling-stroke" d="
  M 870.52 1641.32
  L 870.66 1651.45
  A 0.62 0.61 89.5 0 1 870.05 1652.08
  L 842.77 1652.03
  A 0.52 0.51 -0.0 0 1 842.25 1651.52
  L 842.25 1646.67
  A 0.53 0.53 0.0 0 0 841.60 1646.15
  L 837.13 1647.17
  A 0.78 0.77 -2.3 0 0 836.54 1647.80
  Q 835.04 1656.87 844.03 1657.45
  Q 848.72 1657.75 869.32 1657.33
  Q 876.13 1657.19 876.27 1650.52
  C 876.40 1644.16 877.65 1635.36 869.68 1635.32
  Q 856.90 1635.25 844.05 1635.19
  A 0.55 0.55 0.0 0 1 843.50 1634.64
  L 843.50 1625.13
  A 0.63 0.62 -90.0 0 1 844.12 1624.50
  L 869.87 1624.50
  A 0.63 0.63 0.0 0 1 870.50 1625.13
  L 870.50 1629.55
  A 0.42 0.42 0.0 0 0 871.03 1629.95
  L 875.31 1628.76
  A 0.74 0.72 87.6 0 0 875.83 1628.18
  C 876.86 1622.11 873.48 1619.81 867.79 1619.52
  Q 855.80 1618.92 843.83 1619.64
  C 836.47 1620.08 837.29 1629.55 838.17 1634.84
  C 838.95 1639.56 841.10 1640.52 845.81 1640.61
  Q 857.89 1640.83 870.00 1640.81
  A 0.52 0.52 0.0 0 1 870.52 1641.32"
/>
<path stroke="#5a5a5a" vector-effect="non-scaling-stroke" d="
  M 896.19 1619.31
  L 895.88 1619.21
  A 0.24 0.24 0.0 0 0 895.57 1619.44
  Q 895.36 1637.76 895.58 1650.31
  C 895.69 1656.80 900.25 1657.44 905.50 1657.46
  Q 921.51 1657.49 928.53 1657.35
  C 934.80 1657.23 936.01 1653.75 936.01 1648.25
  Q 936.02 1634.02 935.98 1619.77
  A 0.52 0.52 0.0 0 0 935.46 1619.25
  L 930.25 1619.25
  A 0.50 0.50 0.0 0 0 929.75 1619.75
  L 929.75 1651.54
  A 0.48 0.48 0.0 0 1 929.27 1652.02
  L 902.60 1652.01
  A 0.60 0.60 0.0 0 1 902.00 1651.41
  L 902.00 1620.11
  A 0.88 0.87 89.4 0 0 901.11 1619.23
  L 896.43 1619.31
  Q 896.20 1619.31 896.19 1619.31"
/>
<path stroke="#5a5a5a" vector-effect="non-scaling-stroke" d="
  M 991.00 1652.71
  A 0.45 0.45 0.0 0 0 990.55 1652.26
  L 962.70 1652.20
  A 0.45 0.45 0.0 0 1 962.25 1651.75
  L 962.25 1619.70
  A 0.45 0.45 0.0 0 0 961.80 1619.25
  L 956.20 1619.25
  A 0.45 0.45 0.0 0 0 955.75 1619.70
  L 955.75 1657.05
  A 0.45 0.45 0.0 0 0 956.20 1657.50
  L 990.55 1657.50
  A 0.45 0.45 0.0 0 0 991.00 1657.05
  L 991.00 1652.71"
/>
<path stroke="#5a5a5a" vector-effect="non-scaling-stroke" d="
  M 1003.90 1624.50
  A 0.35 0.35 0.0 0 1 1004.25 1624.85
  L 1004.25 1657.15
  A 0.35 0.35 0.0 0 0 1004.60 1657.50
  L 1010.35 1657.50
  A 0.35 0.35 0.0 0 0 1010.70 1657.15
  L 1010.74 1624.85
  A 0.35 0.35 0.0 0 1 1011.09 1624.50
  L 1027.81 1624.50
  A 0.35 0.35 0.0 0 0 1028.16 1624.15
  L 1028.15 1619.64
  A 0.35 0.35 0.0 0 0 1027.80 1619.29
  L 987.10 1619.25
  A 0.35 0.35 0.0 0 0 986.75 1619.60
  L 986.75 1624.15
  A 0.35 0.35 0.0 0 0 987.10 1624.50
  L 1003.90 1624.50"
/>
<path stroke="#5a5a5a" vector-effect="non-scaling-stroke" d="
  M 1062.59 1648.00
  A 0.41 0.41 0.0 0 1 1062.96 1648.22
  L 1067.75 1657.28
  A 0.41 0.41 0.0 0 0 1068.12 1657.50
  L 1074.20 1657.50
  A 0.41 0.41 0.0 0 0 1074.56 1656.89
  L 1053.75 1619.46
  A 0.41 0.41 0.0 0 0 1053.39 1619.25
  L 1047.14 1619.25
  A 0.41 0.41 0.0 0 0 1046.78 1619.46
  L 1026.31 1656.89
  A 0.41 0.41 0.0 0 0 1026.67 1657.50
  L 1032.03 1657.50
  A 0.41 0.41 0.0 0 0 1032.40 1657.28
  L 1037.15 1648.22
  A 0.41 0.41 0.0 0 1 1037.52 1648.00
  L 1062.59 1648.00"
/>
<path stroke="#5a5a5a" vector-effect="non-scaling-stroke" d="
  M 1093.13 1627.69
  Q 1093.99 1628.67 1094.95 1629.54
  Q 1109.66 1643.01 1124.40 1656.45
  C 1125.81 1657.73 1127.04 1657.83 1128.78 1657.34
  A 0.64 0.64 0.0 0 0 1129.25 1656.72
  L 1129.25 1619.88
  A 0.63 0.63 0.0 0 0 1128.62 1619.25
  L 1123.71 1619.25
  A 0.53 0.53 0.0 0 0 1123.18 1619.79
  L 1123.41 1648.54
  Q 1123.42 1648.88 1123.18 1648.64
  C 1113.42 1638.70 1102.59 1629.60 1092.19 1620.32
  C 1090.69 1618.98 1089.29 1618.94 1087.46 1619.42
  A 0.62 0.62 0.0 0 0 1087.00 1620.02
  L 1087.00 1656.87
  A 0.63 0.63 0.0 0 0 1087.63 1657.50
  L 1092.39 1657.50
  A 0.65 0.65 0.0 0 0 1093.04 1656.85
  L 1092.92 1627.77
  Q 1092.92 1627.45 1093.13 1627.69"
/>
<path stroke="#5a5a5a" vector-effect="non-scaling-stroke" d="
  M 1180.99 1625.16
  L 1181.02 1632.01
  A 1.09 1.09 0.0 0 0 1182.32 1633.07
  L 1186.82 1632.20
  A 0.75 0.75 0.0 0 0 1187.42 1631.53
  C 1187.90 1625.58 1188.07 1620.00 1180.31 1619.62
  Q 1167.66 1619.00 1155.01 1619.50
  C 1148.14 1619.78 1148.20 1626.31 1148.29 1631.28
  Q 1148.42 1638.99 1148.38 1646.68
  C 1148.35 1651.53 1148.78 1656.89 1153.82 1657.25
  Q 1162.75 1657.90 1180.07 1657.37
  C 1188.05 1657.13 1188.12 1650.56 1187.41 1644.47
  A 0.78 0.78 0.0 0 0 1186.81 1643.81
  L 1182.11 1642.76
  A 0.88 0.88 0.0 0 0 1181.04 1643.63
  L 1181.12 1651.22
  A 1.07 1.07 0.0 0 1 1180.03 1652.31
  L 1155.22 1651.95
  A 0.48 0.47 -90.0 0 1 1154.75 1651.47
  L 1154.75 1625.11
  A 0.64 0.63 -89.6 0 1 1155.39 1624.47
  L 1180.41 1624.58
  A 0.58 0.58 0.0 0 1 1180.99 1625.16"
/>
<path stroke="#5a5a5a" vector-effect="non-scaling-stroke" d="
  M 1199.37 1619.35
  L 1198.85 1619.25
  Q 1197.77 1619.03 1198.51 1619.85
  L 1217.11 1640.53
  A 1.51 1.47 24.5 0 1 1217.50 1641.53
  L 1217.50 1657.00
  A 0.50 0.50 0.0 0 0 1218.00 1657.50
  L 1223.34 1657.50
  A 0.59 0.58 -0.5 0 0 1223.93 1656.91
  L 1223.83 1642.51
  Q 1223.82 1640.80 1224.97 1639.53
  L 1242.80 1619.69
  Q 1243.18 1619.27 1242.61 1619.26
  L 1235.77 1619.24
  A 1.10 1.10 0.0 0 0 1234.92 1619.64
  L 1221.46 1635.67
  A 0.73 0.72 44.3 0 1 1220.36 1635.68
  L 1206.46 1619.82
  A 1.17 1.17 0.0 0 0 1205.58 1619.42
  L 1200.10 1619.43
  Q 1199.73 1619.43 1199.37 1619.35"
/>
<path stroke="#d3d3d3" vector-effect="non-scaling-stroke" d="
  M 806.37 252.58
  L 802.27 256.72
  A 0.83 0.83 0.0 0 1 801.09 256.72
  L 759.19 214.81
  A 1.33 1.32 45.2 0 1 759.19 212.94
  L 914.46 57.66
  Q 914.96 57.17 914.26 57.19
  C 905.76 57.44 895.63 57.01 888.82 57.01
  Q 488.72 56.97 88.62 57.02
  C 79.53 57.02 67.81 57.38 57.40 57.29
  A 0.47 0.46 -0.6 0 0 56.92 57.77
  C 57.05 62.28 56.75 67.58 56.75 71.25
  C 56.75 351.15 55.83 631.10 57.03 911.00
  Q 57.05 913.59 56.87 914.83
  Q 56.79 915.34 57.16 914.98
  L 198.24 773.88
  A 1.05 1.05 0.0 0 1 199.73 773.88
  L 411.03 985.28
  A 0.40 0.40 0.0 0 0 411.59 985.28
  L 458.19 938.70
  A 0.81 0.81 0.0 0 0 458.19 937.56
  L 170.46 649.84
  A 1.34 1.34 0.0 0 1 170.46 647.95
  L 270.29 548.25"
/>
<path stroke="#d3d3d3" vector-effect="non-scaling-stroke" d="
  M 270.29 548.25
  L 285.30 533.60
  A 1.17 1.17 0.0 0 1 286.94 533.61
  Q 433.76 680.50 580.96 827.79
  Q 611.53 858.38 642.29 888.77
  C 642.64 889.12 643.05 889.77 643.54 890.17
  A 0.56 0.55 42.1 0 0 644.28 890.14
  L 680.86 853.35
  A 0.51 0.51 0.0 0 0 680.86 852.63
  L 156.45 328.02
  A 1.32 1.32 0.0 0 1 156.45 326.16
  L 257.04 225.58
  A 0.56 0.55 41.2 0 1 257.77 225.54
  Q 264.36 230.79 269.59 237.20"
/>
<path stroke="#d3d3d3" vector-effect="non-scaling-stroke" d="
  M 269.59 237.20
  C 350.45 318.65 431.96 399.48 513.10 480.65
  Q 529.11 496.68 545.36 512.60
  A 0.60 0.59 -45.3 0 1 545.36 513.45
  L 514.28 544.42
  A 0.26 0.26 0.0 0 1 513.86 544.32
  L 513.75 544.03
  Q 513.56 543.51 513.17 543.12
  L 258.31 288.19
  A 0.62 0.61 44.7 0 0 257.44 288.19
  L 218.77 326.61
  A 0.55 0.55 0.0 0 0 218.75 327.37
  Q 223.57 332.75 230.53 339.72
  Q 486.90 596.34 743.43 852.83
  A 0.49 0.48 -45.4 0 1 743.43 853.52
  L 644.58 952.61
  A 0.72 0.71 -45.3 0 1 643.58 952.62
  Q 629.14 938.72 615.34 924.91
  Q 450.95 760.28 286.50 595.71"
/>
<path stroke="#d3d3d3" vector-effect="non-scaling-stroke" d="
  M 286.50 595.71
  Q 286.09 595.10 285.72 595.46
  Q 258.94 621.69 232.83 648.49
  A 0.45 0.45 0.0 0 0 232.82 649.10
  Q 237.51 654.24 242.39 659.11
  Q 358.93 775.57 475.38 892.12
  C 490.56 907.31 506.34 922.11 520.96 937.83
  A 0.52 0.52 0.0 0 1 520.95 938.55
  C 484.94 975.18 448.46 1011.37 412.09 1047.66
  A 0.58 0.57 -48.6 0 1 411.33 1047.71
  Q 408.95 1045.90 404.40 1041.35
  Q 307.89 944.86 212.08 848.94
  A 0.98 0.98 0.0 0 0 210.70 848.93
  L 197.71 861.75"
/>
<path stroke="#f2f2f2" vector-effect="non-scaling-stroke" d="
  M 269.25 547.21
  Q 270.36 547.14 270.29 548.25"
/>
<path stroke="#f2f2f2" vector-effect="non-scaling-stroke" d="
  M 271.04 236.25
  L 269.59 237.20"
/>
<path stroke="#f2f2f2" vector-effect="non-scaling-stroke" d="
  M 286.21 597.50
  Q 285.39 596.15 286.50 595.71"
/>
<path stroke="#797979" vector-effect="non-scaling-stroke" d="
  M 362.11 1462.26
  A 0.34 0.34 0.0 0 0 362.41 1462.75
  L 461.27 1462.75
  A 0.34 0.34 0.0 0 0 461.57 1462.26
  L 412.14 1368.22
  A 0.34 0.34 0.0 0 0 411.54 1368.22
  L 362.11 1462.26"
/>
<path stroke="#797979" vector-effect="non-scaling-stroke" d="
  M 624.30 1462.25
  A 0.34 0.34 0.0 0 0 624.60 1462.75
  L 723.48 1462.75
  A 0.34 0.34 0.0 0 0 723.78 1462.25
  L 674.34 1368.22
  A 0.34 0.34 0.0 0 0 673.74 1368.22
  L 624.30 1462.25"
/>
<path stroke="#797979" vector-effect="non-scaling-stroke" d="
  M 1062.22 1462.25
  A 0.34 0.34 0.0 0 0 1062.52 1462.75
  L 1161.40 1462.75
  A 0.34 0.34 0.0 0 0 1161.70 1462.25
  L 1112.26 1368.20
  A 0.34 0.34 0.0 0 0 1111.66 1368.20
  L 1062.22 1462.25"
/>
<path stroke="#5a5a5a" vector-effect="non-scaling-stroke" d="
  M 47.63 1642.55
  A 0.31 0.31 0.0 0 0 47.90 1643.00
  L 66.98 1643.00
  A 0.31 0.31 0.0 0 0 67.25 1642.55
  L 57.71 1624.47
  A 0.31 0.31 0.0 0 0 57.17 1624.47
  L 47.63 1642.55"
/>
<path stroke="#5a5a5a" vector-effect="non-scaling-stroke" d="
  M 124.89 1624.87
  Q 123.91 1624.50 122.87 1624.50
  L 101.25 1624.50
  A 0.50 0.50 0.0 0 0 100.75 1625.00
  L 100.75 1637.00
  A 0.51 0.50 90.0 0 0 101.25 1637.51
  L 124.14 1637.49
  Q 126.49 1637.48 126.50 1635.13
  C 126.51 1632.86 127.42 1625.82 124.89 1624.87"
/>
<path stroke="#5a5a5a" vector-effect="non-scaling-stroke" d="
  M 597.65 1648.37
  A 0.38 0.38 0.0 0 0 597.63 1647.79
  L 584.69 1637.46
  A 0.38 0.38 0.0 0 0 584.24 1637.44
  L 574.91 1644.02
  A 0.38 0.38 0.0 0 0 574.75 1644.33
  L 574.75 1652.12
  A 0.38 0.38 0.0 0 0 575.13 1652.50
  L 592.89 1652.50
  A 0.38 0.38 0.0 0 0 593.15 1652.40
  L 597.65 1648.37"
/>
<path stroke="#5a5a5a" vector-effect="non-scaling-stroke" d="
  M 750.26 1624.90
  A 0.26 0.26 0.0 0 0 750.00 1624.64
  L 719.44 1624.64
  A 0.26 0.26 0.0 0 0 719.18 1624.90
  L 719.18 1651.74
  A 0.26 0.26 0.0 0 0 719.44 1652.00
  L 750.00 1652.00
  A 0.26 0.26 0.0 0 0 750.26 1651.74
  L 750.26 1624.90"
/>
<path stroke="#5a5a5a" vector-effect="non-scaling-stroke" d="
  M 1040.40 1642.52
  A 0.34 0.34 0.0 0 0 1040.70 1643.02
  L 1059.54 1642.99
  A 0.34 0.34 0.0 0 0 1059.84 1642.49
  L 1050.39 1624.52
  A 0.34 0.34 0.0 0 0 1049.79 1624.52
  L 1040.40 1642.52"
/>
</g>
<path fill="#f2f2f2" d="
  M 0.00 0.00
  L 1060.31 0.00
  L 1060.53 0.25
  A 0.35 0.35 0.0 0 1 1060.52 0.73
  L 808.04 253.25
  L 807.83 252.54
  Q 807.73 252.22 807.56 252.50
  Q 807.28 252.97 806.37 252.58
  Q 924.82 134.30 1043.06 15.81
  C 1044.50 14.36 1056.81 2.74 1056.75 2.07
  A 0.62 0.62 0.0 0 0 1056.13 1.50
  L 2.28 1.50
  A 0.50 0.50 0.0 0 0 1.78 1.97
  C 1.18 11.73 1.75 24.48 1.75 31.16
  Q 1.76 520.80 1.74 1010.44
  Q 1.74 1038.35 1.56 1051.66
  C 1.55 1053.15 1.91 1055.06 1.71 1056.82
  Q 1.54 1058.25 2.48 1057.16
  Q 4.21 1055.18 6.07 1053.31
  Q 98.40 960.64 190.97 868.22
  Q 194.28 864.92 197.71 861.75
  L 197.62 862.47
  A 0.36 0.36 0.0 0 0 198.03 862.87
  L 198.50 862.79
  L 0.84 1060.66
  A 0.38 0.38 0.0 0 1 0.25 1060.59
  L 0.00 1060.19
  L 0.00 0.00
  Z"
/>
<path fill="#000000" d="
  M 1060.31 0.00
  L 1188.56 0.00
  L 865.83 322.66
  A 0.50 0.50 0.0 0 0 865.83 323.37
  C 922.82 380.46 979.63 437.77 1036.75 494.73
  A 0.50 0.49 44.6 0 1 1036.76 495.43
  L 978.96 553.50
  L 968.05 564.20
  A 0.52 0.52 0.0 0 1 967.32 564.20
  L 537.18 134.06
  A 0.45 0.44 -44.6 0 0 536.55 134.06
  L 435.05 235.58
  A 0.52 0.52 0.0 0 0 435.04 236.31
  Q 447.69 249.74 460.96 262.25
  L 974.50 776.04
  L 981.97 784.14
  A 0.57 0.56 -44.6 0 1 981.96 784.92
  L 901.29 865.58
  A 0.59 0.58 44.7 0 1 900.46 865.58
  C 804.36 769.49 708.82 672.72 612.09 577.30
  A 0.56 0.54 44.3 0 0 611.31 577.30
  L 578.83 609.81
  A 0.53 0.52 46.2 0 0 578.82 610.55
  Q 587.29 619.15 595.80 627.69
  Q 747.99 780.44 900.52 932.84
  A 0.53 0.53 0.0 0 0 901.28 932.84
  L 1049.55 784.58
  A 0.42 0.42 0.0 0 0 1049.55 783.98
  L 502.34 236.69
  A 0.93 0.93 0.0 0 1 502.34 235.37
  L 536.57 201.27
  A 0.49 0.49 0.0 0 1 537.27 201.27
  L 966.91 631.07
  A 0.98 0.98 0.0 0 0 968.30 631.07
  L 1103.94 495.44
  A 0.63 0.63 0.0 0 0 1103.94 494.56
  L 955.05 345.68
  A 0.47 0.46 45.4 0 1 955.05 345.03
  L 1184.64 115.21
  Q 1185.20 114.65 1185.20 115.45
  L 1185.37 665.79
  Q 1185.37 665.97 1185.31 666.14
  Q 1185.25 666.29 1185.25 666.50
  Q 1185.25 926.07 1185.25 1185.55
  A 0.45 0.45 0.0 0 1 1184.80 1186.00
  L 114.87 1186.00
  Q 114.13 1186.00 114.65 1185.48
  L 274.68 1025.44
  A 0.52 0.52 0.0 0 0 274.68 1024.70
  L 229.04 979.25
  L 219.74 969.59
  A 0.47 0.47 0.0 0 0 219.07 969.58
  L 17.96 1170.75
  L 0.00 1188.69
  L 0.00 1060.19
  L 0.25 1060.59
  A 0.38 0.38 0.0 0 0 0.84 1060.66
  L 198.50 862.79
  L 210.81 850.54
  A 0.48 0.47 44.6 0 1 211.48 850.54
  L 411.06 1050.19
  A 0.45 0.45 0.0 0 0 411.69 1050.19
  L 523.50 938.38
  A 0.54 0.54 0.0 0 0 523.50 937.62
  L 235.06 649.19
  A 0.54 0.53 45.4 0 1 235.06 648.44
  L 286.21 597.50
  L 643.55 954.90
  A 0.79 0.79 0.0 0 0 644.67 954.90
  L 746.12 853.47
  A 0.52 0.52 0.0 0 0 746.12 852.74
  L 220.88 327.50
  A 0.52 0.51 -45.4 0 1 220.88 326.77
  L 257.41 290.18
  A 0.45 0.45 0.0 0 1 258.05 290.18
  L 514.06 546.18
  A 0.44 0.44 0.0 0 0 514.68 546.18
  L 547.61 513.31
  A 0.47 0.47 0.0 0 0 547.61 512.64
  C 455.54 420.40 362.91 328.68 271.04 236.25
  L 257.94 222.97
  A 0.36 0.36 0.0 0 0 257.42 222.97
  L 153.78 326.64
  A 0.49 0.48 45.4 0 0 153.78 327.33
  L 678.81 852.69
  A 0.62 0.61 45.3 0 1 678.81 853.56
  L 644.43 887.94
  A 0.45 0.44 -44.6 0 1 643.80 887.94
  L 286.46 530.58
  A 0.48 0.48 0.0 0 0 285.78 530.58
  L 269.25 547.21
  L 167.96 648.43
  A 0.49 0.48 45.4 0 0 167.96 649.12
  Q 373.13 854.17 453.30 934.45
  Q 454.49 935.64 456.24 937.90
  A 0.60 0.60 0.0 0 1 456.19 938.69
  L 411.87 983.00
  A 0.52 0.52 0.0 0 1 411.13 983.00
  L 199.56 771.44
  A 0.62 0.62 0.0 0 0 198.68 771.44
  L 58.69 911.44
  Q 58.25 911.88 58.25 911.25
  L 58.25 59.53
  A 0.50 0.50 0.0 0 1 58.72 59.03
  C 68.48 58.43 81.22 59.00 87.90 59.00
  Q 494.17 59.01 900.44 58.78
  Q 905.54 58.78 910.45 58.92
  Q 910.95 58.93 910.59 59.28
  L 756.69 213.19
  A 0.79 0.79 0.0 0 0 756.69 214.31
  L 801.53 259.16
  A 0.48 0.48 0.0 0 0 802.21 259.16
  L 808.04 253.25
  L 1060.52 0.73
  A 0.35 0.35 0.0 0 0 1060.53 0.25
  L 1060.31 0.00
  Z"
/>
<path fill="#f2f2f2" d="
  M 1188.56 0.00
  L 1243.31 0.00
  Q 1243.54 0.30 1243.90 0.32
  A 0.37 0.37 0.0 0 1 1244.25 0.68
  L 1244.26 1.04
  A 0.19 0.19 0.0 0 1 1244.07 1.23
  L 1189.54 1.28
  A 1.19 1.18 21.2 0 0 1188.67 1.66
  C 1185.20 5.38 1180.69 9.37 1177.76 12.30
  Q 1085.85 104.24 993.98 196.23
  C 952.32 237.94 910.36 279.62 868.56 322.06
  A 1.42 1.41 45.1 0 0 868.56 324.05
  Q 947.15 403.23 1026.93 482.32
  Q 1032.08 487.43 1038.16 492.79
  Q 1040.21 494.59 1038.24 496.48
  Q 1008.71 524.74 980.16 553.98
  A 0.78 0.78 0.0 0 1 979.09 554.03
  Q 978.96 553.91 978.96 553.50
  L 1036.76 495.43
  A 0.50 0.49 44.6 0 0 1036.75 494.73
  C 979.63 437.77 922.82 380.46 865.83 323.37
  A 0.50 0.50 0.0 0 1 865.83 322.66
  L 1188.56 0.00
  Z"
/>
<path fill="#b3b3b3" d="
  M 1243.31 0.00
  L 1245.99 0.00
  L 1245.97 1245.71
  A 0.50 0.50 0.0 0 1 1245.47 1246.21
  L 0.00 1246.19
  L 0.00 1188.69
  L 17.96 1170.75
  C 18.69 1171.10 19.32 1171.04 19.93 1170.43
  Q 118.86 1071.23 218.10 972.20
  A 1.04 1.04 0.0 0 1 219.44 972.08
  Q 223.83 975.21 227.19 979.36
  A 0.93 0.90 -23.4 0 0 228.06 979.69
  Q 228.62 979.60 229.04 979.25
  L 274.68 1024.70
  A 0.52 0.52 0.0 0 1 274.68 1025.44
  L 114.65 1185.48
  Q 114.13 1186.00 114.87 1186.00
  L 1184.80 1186.00
  A 0.45 0.45 0.0 0 0 1185.25 1185.55
  Q 1185.25 926.07 1185.25 666.50
  Q 1185.25 666.29 1185.31 666.14
  Q 1185.37 665.97 1185.37 665.79
  L 1185.20 115.45
  Q 1185.20 114.65 1184.64 115.21
  L 955.05 345.03
  A 0.47 0.46 45.4 0 0 955.05 345.68
  L 1103.94 494.56
  A 0.63 0.63 0.0 0 1 1103.94 495.44
  L 968.30 631.07
  A 0.98 0.98 0.0 0 1 966.91 631.07
  L 537.27 201.27
  A 0.49 0.49 0.0 0 0 536.57 201.27
  L 502.34 235.37
  A 0.93 0.93 0.0 0 0 502.34 236.69
  L 1049.55 783.98
  A 0.42 0.42 0.0 0 1 1049.55 784.58
  L 901.28 932.84
  A 0.53 0.53 0.0 0 1 900.52 932.84
  Q 747.99 780.44 595.80 627.69
  Q 587.29 619.15 578.82 610.55
  A 0.53 0.52 46.2 0 1 578.83 609.81
  L 611.31 577.30
  A 0.56 0.54 44.3 0 1 612.09 577.30
  C 708.82 672.72 804.36 769.49 900.46 865.58
  A 0.59 0.58 44.7 0 0 901.29 865.58
  L 981.96 784.92
  A 0.57 0.56 -44.6 0 0 981.97 784.14
  L 974.50 776.04
  Q 933.08 731.05 889.13 688.50
  Q 881.10 680.72 874.88 674.47
  C 737.78 536.64 600.18 399.27 462.54 261.98
  A 1.00 0.98 -27.2 0 0 461.67 261.71
  Q 461.19 261.80 460.96 262.25
  Q 447.69 249.74 435.04 236.31
  A 0.52 0.52 0.0 0 1 435.05 235.58
  L 536.55 134.06
  A 0.45 0.44 -44.6 0 1 537.18 134.06
  L 967.32 564.20
  A 0.52 0.52 0.0 0 0 968.05 564.20
  L 978.96 553.50
  Q 978.96 553.91 979.09 554.03
  A 0.78 0.78 0.0 0 0 980.16 553.98
  Q 1008.71 524.74 1038.24 496.48
  Q 1040.21 494.59 1038.16 492.79
  Q 1032.08 487.43 1026.93 482.32
  Q 947.15 403.23 868.56 324.05
  A 1.42 1.41 45.1 0 1 868.56 322.06
  C 910.36 279.62 952.32 237.94 993.98 196.23
  Q 1085.85 104.24 1177.76 12.30
  C 1180.69 9.37 1185.20 5.38 1188.67 1.66
  A 1.19 1.18 21.2 0 1 1189.54 1.28
  L 1244.07 1.23
  A 0.19 0.19 0.0 0 0 1244.26 1.04
  L 1244.25 0.68
  A 0.37 0.37 0.0 0 0 1243.90 0.32
  Q 1243.54 0.30 1243.31 0.00
  Z"
/>
<path fill="#000000" d="
  M 1245.99 0.00
  L 1252.00 0.00
  L 1252.00 1675.00
  L 0.00 1675.00
  L 0.00 1246.19
  L 1245.47 1246.21
  A 0.50 0.50 0.0 0 0 1245.97 1245.71
  L 1245.99 0.00
  Z
  M 70.19 1505.72
  L 70.12 1476.88
  A 0.41 0.41 0.0 0 0 69.62 1476.48
  L 41.84 1482.90
  A 0.69 0.67 -5.7 0 0 41.31 1483.53
  C 40.34 1502.21 42.08 1525.52 64.40 1530.23
  C 69.54 1531.31 76.12 1532.25 82.00 1532.26
  Q 141.03 1532.32 200.06 1532.18
  Q 210.76 1532.16 221.44 1527.50
  C 232.84 1522.52 235.53 1508.56 236.23 1497.54
  Q 237.42 1478.50 236.36 1459.44
  C 235.64 1446.51 232.77 1432.55 219.18 1427.28
  Q 209.44 1423.50 197.00 1423.50
  Q 136.80 1423.49 76.70 1423.50
  A 0.45 0.45 0.0 0 1 76.25 1423.05
  L 76.25 1371.81
  A 0.31 0.31 0.0 0 1 76.56 1371.50
  L 207.38 1371.50
  A 0.63 0.63 0.0 0 1 208.01 1372.13
  L 207.98 1397.85
  A 0.49 0.48 82.0 0 0 208.60 1398.32
  L 233.92 1391.10
  A 0.73 0.73 0.0 0 0 234.45 1390.44
  C 235.98 1362.29 226.15 1346.64 196.50 1346.30
  Q 141.87 1345.69 87.25 1346.35
  C 60.38 1346.67 49.36 1356.95 48.66 1383.82
  C 48.25 1399.82 46.81 1418.53 52.71 1433.56
  C 58.76 1448.94 77.38 1450.45 91.50 1450.46
  Q 149.97 1450.52 208.42 1450.50
  A 0.33 0.32 -0.0 0 1 208.75 1450.82
  L 208.75 1505.64
  A 0.59 0.58 90.0 0 1 208.17 1506.23
  L 70.78 1506.31
  A 0.59 0.59 0.0 0 1 70.19 1505.72
  Z
  M 474.91 1487.28
  L 498.10 1531.84
  A 0.81 0.80 75.7 0 0 498.81 1532.27
  L 531.96 1532.25
  A 0.39 0.39 0.0 0 0 532.30 1531.67
  L 429.59 1346.69
  A 0.85 0.84 -14.3 0 0 428.85 1346.26
  L 396.33 1346.24
  A 0.88 0.87 14.4 0 0 395.56 1346.69
  L 294.69 1531.57
  A 0.46 0.46 0.0 0 0 295.09 1532.25
  L 324.58 1532.25
  A 0.82 0.81 -76.0 0 0 325.30 1531.81
  L 348.51 1487.25
  A 0.87 0.86 -76.5 0 1 349.28 1486.77
  C 380.69 1486.52 412.10 1486.83 443.50 1486.69
  C 453.71 1486.65 463.94 1486.51 474.14 1486.80
  A 0.88 0.88 0.0 0 1 474.91 1487.28
  Z
  M 737.12 1487.27
  L 760.26 1531.78
  A 0.88 0.87 75.6 0 0 761.03 1532.24
  L 794.14 1532.27
  A 0.41 0.40 75.5 0 0 794.49 1531.67
  L 691.86 1346.81
  A 1.05 1.03 75.0 0 0 690.96 1346.28
  L 659.09 1346.20
  A 1.81 1.80 -75.3 0 0 657.49 1347.14
  L 556.76 1531.79
  A 0.31 0.31 0.0 0 0 557.03 1532.24
  L 586.84 1532.27
  A 0.68 0.67 -76.2 0 0 587.44 1531.90
  L 610.75 1487.20
  A 0.87 0.85 -76.2 0 1 611.49 1486.74
  C 653.04 1486.36 694.82 1486.25 736.37 1486.80
  A 0.88 0.86 76.5 0 1 737.12 1487.27
  Z
  M 896.09 1428.45
  L 824.35 1346.65
  A 1.14 1.14 0.0 0 0 823.49 1346.26
  L 785.61 1346.14
  Q 785.15 1346.14 785.45 1346.48
  L 879.02 1450.51
  A 1.90 1.89 24.3 0 1 879.50 1451.77
  L 879.50 1531.77
  A 0.52 0.51 0.0 0 0 880.02 1532.28
  L 909.98 1532.23
  A 0.47 0.46 -0.0 0 0 910.45 1531.77
  L 910.65 1451.01
  A 1.37 1.36 -24.3 0 1 911.00 1450.10
  L 1003.96 1346.41
  Q 1004.39 1345.93 1003.74 1345.95
  Q 988.62 1346.37 973.36 1346.24
  C 971.52 1346.22 968.80 1345.62 966.38 1346.33
  A 1.75 1.74 11.5 0 0 965.56 1346.87
  L 896.98 1428.44
  A 0.59 0.59 0.0 0 1 896.09 1428.45
  Z
  M 1048.81 1486.91
  A 0.31 0.31 0.0 0 1 1049.09 1486.74
  L 1174.58 1486.75
  A 0.31 0.31 0.0 0 1 1174.86 1486.92
  L 1198.35 1532.09
  A 0.31 0.31 0.0 0 0 1198.63 1532.26
  L 1232.21 1532.26
  A 0.31 0.31 0.0 0 0 1232.48 1531.80
  L 1129.57 1346.44
  A 0.31 0.31 0.0 0 0 1129.30 1346.28
  L 1096.13 1346.18
  A 0.31 0.31 0.0 0 0 1095.86 1346.34
  L 994.68 1531.78
  A 0.31 0.31 0.0 0 0 994.95 1532.24
  L 1024.99 1532.27
  A 0.31 0.31 0.0 0 0 1025.27 1532.10
  L 1048.81 1486.91
  Z
  M 503.95 1579.54
  A 6.31 6.31 0.0 0 0 497.64 1573.23
  L 30.66 1573.23
  A 6.31 6.31 0.0 0 0 24.35 1579.54
  L 24.35 1579.94
  A 6.31 6.31 0.0 0 0 30.66 1586.25
  L 497.64 1586.25
  A 6.31 6.31 0.0 0 0 503.95 1579.94
  L 503.95 1579.54
  Z
  M 1251.77 1579.60
  A 6.58 6.58 0.0 0 0 1245.19 1573.02
  L 758.29 1573.02
  A 6.58 6.58 0.0 0 0 751.71 1579.60
  L 751.71 1579.68
  A 6.58 6.58 0.0 0 0 758.29 1586.26
  L 1245.19 1586.26
  A 6.58 6.58 0.0 0 0 1251.77 1579.68
  L 1251.77 1579.60
  Z
  M 537.13 1579.75
  A 6.55 6.55 0.0 0 0 530.58 1573.20
  A 6.55 6.55 0.0 0 0 524.03 1579.75
  A 6.55 6.55 0.0 0 0 530.58 1586.30
  A 6.55 6.55 0.0 0 0 537.13 1579.75
  Z
  M 585.48 1579.75
  A 6.55 6.55 0.0 0 0 578.93 1573.20
  A 6.55 6.55 0.0 0 0 572.38 1579.75
  A 6.55 6.55 0.0 0 0 578.93 1586.30
  A 6.55 6.55 0.0 0 0 585.48 1579.75
  Z
  M 633.89 1579.73
  A 6.56 6.56 0.0 0 0 627.33 1573.17
  A 6.56 6.56 0.0 0 0 620.77 1579.73
  A 6.56 6.56 0.0 0 0 627.33 1586.29
  A 6.56 6.56 0.0 0 0 633.89 1579.73
  Z
  M 682.24 1579.74
  A 6.55 6.55 0.0 0 0 675.69 1573.19
  A 6.55 6.55 0.0 0 0 669.14 1579.74
  A 6.55 6.55 0.0 0 0 675.69 1586.29
  A 6.55 6.55 0.0 0 0 682.24 1579.74
  Z
  M 730.62 1579.75
  A 6.55 6.55 0.0 0 0 724.07 1573.20
  A 6.55 6.55 0.0 0 0 717.52 1579.75
  A 6.55 6.55 0.0 0 0 724.07 1586.30
  A 6.55 6.55 0.0 0 0 730.62 1579.75
  Z
  M 70.03 1648.02
  A 0.33 0.33 0.0 0 1 70.32 1648.20
  L 75.04 1657.32
  A 0.33 0.33 0.0 0 0 75.33 1657.50
  L 81.67 1657.51
  A 0.33 0.33 0.0 0 0 81.96 1657.02
  L 61.08 1619.42
  A 0.33 0.33 0.0 0 0 60.80 1619.25
  L 54.42 1619.25
  A 0.33 0.33 0.0 0 0 54.13 1619.42
  L 33.61 1657.01
  A 0.33 0.33 0.0 0 0 33.90 1657.50
  L 39.45 1657.50
  A 0.33 0.33 0.0 0 0 39.74 1657.32
  L 44.55 1648.17
  A 0.33 0.33 0.0 0 1 44.84 1647.99
  L 70.03 1648.02
  Z
  M 120.49 1642.75
  C 127.97 1641.71 133.03 1644.35 133.02 1633.88
  C 133.01 1623.48 134.47 1619.26 121.79 1619.17
  Q 108.45 1619.07 94.83 1619.37
  A 0.62 0.62 0.0 0 0 94.22 1619.99
  L 94.39 1656.82
  A 0.69 0.69 0.0 0 0 95.08 1657.50
  L 100.25 1657.50
  A 0.50 0.50 0.0 0 0 100.75 1657.00
  L 100.75 1643.00
  A 0.50 0.50 0.0 0 1 101.25 1642.50
  L 111.34 1642.50
  A 1.25 1.23 66.4 0 1 112.19 1642.84
  L 127.11 1657.17
  A 1.21 1.20 -22.8 0 0 127.95 1657.51
  L 136.06 1657.49
  Q 136.92 1657.48 136.26 1656.92
  L 120.33 1643.29
  Q 119.80 1642.84 120.49 1642.75
  Z
  M 182.26 1652.23
  L 157.12 1651.93
  A 0.62 0.62 0.0 0 1 156.50 1651.31
  L 156.50 1625.00
  A 0.50 0.50 0.0 0 1 157.00 1624.50
  L 182.25 1624.50
  A 0.50 0.50 0.0 0 1 182.75 1625.00
  L 182.75 1632.79
  A 0.46 0.45 84.3 0 0 183.29 1633.24
  L 188.65 1632.17
  A 0.71 0.71 0.0 0 0 189.22 1631.54
  C 189.71 1626.24 189.35 1619.94 183.43 1619.57
  Q 171.08 1618.79 157.68 1619.56
  C 153.10 1619.82 150.28 1621.43 150.26 1626.26
  Q 150.22 1638.24 150.32 1650.28
  Q 150.37 1657.20 157.42 1657.36
  Q 172.55 1657.69 183.75 1657.28
  C 189.83 1657.05 189.66 1648.47 189.14 1644.44
  A 0.79 0.78 -88.5 0 0 188.52 1643.78
  L 183.38 1642.68
  A 0.52 0.52 0.0 0 0 182.75 1643.19
  L 182.75 1651.74
  A 0.49 0.48 -89.4 0 1 182.26 1652.23
  Z
  M 242.25 1634.41
  A 0.56 0.56 0.0 0 1 241.69 1634.97
  L 212.78 1635.02
  A 0.56 0.56 0.0 0 1 212.22 1634.46
  L 212.30 1619.81
  A 0.56 0.56 0.0 0 0 211.74 1619.25
  L 206.56 1619.25
  A 0.56 0.56 0.0 0 0 206.00 1619.81
  L 206.00 1656.94
  A 0.56 0.56 0.0 0 0 206.56 1657.50
  L 211.74 1657.50
  A 0.56 0.56 0.0 0 0 212.30 1656.94
  L 212.23 1640.81
  A 0.56 0.56 0.0 0 1 212.79 1640.25
  L 241.69 1640.25
  A 0.56 0.56 0.0 0 1 242.25 1640.81
  L 242.25 1656.94
  A 0.56 0.56 0.0 0 0 242.81 1657.50
  L 248.19 1657.50
  A 0.56 0.56 0.0 0 0 248.75 1656.94
  L 248.75 1619.81
  A 0.56 0.56 0.0 0 0 248.19 1619.25
  L 242.81 1619.25
  A 0.56 0.56 0.0 0 0 242.25 1619.81
  L 242.25 1634.41
  Z
  M 275.00 1619.78
  A 0.52 0.52 0.0 0 0 274.48 1619.26
  L 269.02 1619.26
  A 0.52 0.52 0.0 0 0 268.50 1619.78
  L 268.50 1656.98
  A 0.52 0.52 0.0 0 0 269.02 1657.50
  L 274.48 1657.50
  A 0.52 0.52 0.0 0 0 275.00 1656.98
  L 275.00 1619.78
  Z
  M 309.50 1624.84
  A 0.34 0.34 0.0 0 1 309.84 1624.50
  L 326.66 1624.50
  A 0.34 0.34 0.0 0 0 327.00 1624.16
  L 327.00 1619.63
  A 0.34 0.34 0.0 0 0 326.66 1619.29
  L 286.05 1619.26
  A 0.34 0.34 0.0 0 0 285.71 1619.60
  L 285.69 1624.16
  A 0.34 0.34 0.0 0 0 286.03 1624.50
  L 302.68 1624.50
  A 0.34 0.34 0.0 0 1 303.02 1624.84
  L 302.99 1657.16
  A 0.34 0.34 0.0 0 0 303.33 1657.50
  L 309.16 1657.50
  A 0.34 0.34 0.0 0 0 309.50 1657.16
  L 309.50 1624.84
  Z
  M 344.39 1635.00
  A 0.39 0.39 0.0 0 1 344.00 1634.61
  L 344.00 1624.89
  A 0.39 0.39 0.0 0 1 344.39 1624.50
  L 373.86 1624.50
  A 0.39 0.39 0.0 0 0 374.25 1624.11
  L 374.25 1619.64
  A 0.39 0.39 0.0 0 0 373.86 1619.25
  L 337.89 1619.25
  A 0.39 0.39 0.0 0 0 337.50 1619.64
  L 337.50 1657.11
  A 0.39 0.39 0.0 0 0 337.89 1657.50
  L 374.11 1657.50
  A 0.39 0.39 0.0 0 0 374.50 1657.11
  L 374.50 1652.64
  A 0.39 0.39 0.0 0 0 374.11 1652.25
  L 344.39 1652.25
  A 0.39 0.39 0.0 0 1 344.00 1651.86
  L 344.00 1640.38
  A 0.39 0.39 0.0 0 1 344.39 1639.99
  L 362.11 1640.03
  A 0.39 0.39 0.0 0 0 362.50 1639.64
  L 362.50 1635.39
  A 0.39 0.39 0.0 0 0 362.11 1635.00
  L 344.39 1635.00
  Z
  M 395.75 1651.47
  L 395.75 1625.00
  A 0.50 0.50 0.0 0 1 396.25 1624.50
  L 421.37 1624.50
  A 0.63 0.63 0.0 0 1 422.00 1625.13
  L 422.00 1632.77
  A 0.44 0.43 85.0 0 0 422.51 1633.20
  L 427.71 1632.23
  A 0.72 0.70 86.9 0 0 428.28 1631.58
  C 428.64 1627.02 428.81 1620.13 422.56 1619.71
  Q 409.62 1618.83 396.67 1619.55
  C 392.10 1619.80 389.34 1621.49 389.29 1626.26
  Q 389.15 1638.60 389.50 1650.93
  Q 389.67 1656.67 394.74 1657.28
  Q 400.57 1657.97 421.31 1657.49
  C 428.94 1657.31 428.28 1650.78 428.34 1644.43
  A 0.66 0.65 -83.7 0 0 427.82 1643.77
  L 422.57 1642.72
  A 0.47 0.47 0.0 0 0 422.01 1643.18
  L 421.99 1651.64
  A 0.49 0.49 0.0 0 1 421.49 1652.13
  L 396.22 1651.94
  A 0.47 0.47 0.0 0 1 395.75 1651.47
  Z
  M 436.00 1624.10
  A 0.40 0.40 0.0 0 0 436.40 1624.50
  L 453.10 1624.50
  A 0.40 0.40 0.0 0 1 453.50 1624.90
  L 453.50 1657.10
  A 0.40 0.40 0.0 0 0 453.90 1657.50
  L 459.35 1657.50
  A 0.40 0.40 0.0 0 0 459.75 1657.10
  L 459.75 1624.90
  A 0.40 0.40 0.0 0 1 460.15 1624.50
  L 476.85 1624.50
  A 0.40 0.40 0.0 0 0 477.25 1624.10
  L 477.25 1619.75
  A 0.40 0.40 0.0 0 0 476.85 1619.35
  L 436.39 1619.28
  A 0.40 0.40 0.0 0 0 435.99 1619.68
  L 436.00 1624.10
  Z
  M 520.50 1625.00
  L 520.50 1629.58
  A 0.45 0.45 0.0 0 0 521.08 1630.01
  L 525.42 1628.67
  A 0.84 0.82 -5.1 0 0 526.00 1627.99
  C 526.83 1621.93 523.47 1619.82 517.86 1619.52
  Q 506.35 1618.89 494.82 1619.54
  C 490.89 1619.76 488.55 1621.19 488.20 1625.19
  C 487.84 1629.31 486.69 1639.23 492.24 1640.21
  C 500.84 1641.74 511.34 1640.70 520.21 1640.83
  A 0.54 0.53 1.1 0 1 520.74 1641.37
  L 520.69 1651.62
  A 0.62 0.62 0.0 0 1 520.07 1652.23
  L 492.85 1652.20
  A 0.60 0.60 0.0 0 1 492.25 1651.60
  L 492.25 1646.54
  A 0.43 0.42 -7.0 0 0 491.72 1646.13
  L 487.16 1647.22
  A 0.80 0.79 -3.2 0 0 486.56 1647.89
  C 485.33 1657.96 492.09 1657.42 499.87 1657.50
  C 504.75 1657.54 521.07 1658.72 524.34 1655.68
  C 527.18 1653.04 526.85 1643.10 526.17 1640.52
  Q 524.82 1635.35 518.74 1635.31
  Q 506.50 1635.22 494.28 1635.23
  A 0.53 0.53 0.0 0 1 493.75 1634.71
  L 493.54 1625.11
  A 0.60 0.59 -0.9 0 1 494.14 1624.50
  L 520.00 1624.50
  A 0.50 0.50 0.0 0 1 520.50 1625.00
  Z
  M 605.76 1647.21
  L 613.45 1639.95
  A 0.62 0.62 0.0 0 0 613.45 1639.05
  L 611.08 1636.79
  A 0.67 0.66 -44.7 0 0 610.17 1636.79
  L 602.14 1644.27
  A 0.62 0.61 -46.8 0 1 601.32 1644.30
  L 583.87 1629.94
  A 1.11 1.08 -72.1 0 1 583.47 1629.13
  L 583.33 1624.59
  A 0.57 0.57 0.0 0 1 583.90 1624.00
  L 597.12 1624.00
  A 0.63 0.62 -0.0 0 1 597.75 1624.62
  L 597.75 1629.67
  A 0.36 0.35 -4.9 0 0 598.17 1630.01
  L 602.18 1629.33
  A 0.60 0.59 89.4 0 0 602.67 1628.82
  Q 603.13 1625.65 602.10 1622.66
  Q 601.27 1620.23 598.72 1619.88
  C 594.20 1619.27 580.49 1617.51 578.56 1623.25
  Q 576.53 1629.26 580.43 1633.93
  A 0.47 0.46 -37.6 0 1 580.34 1634.60
  Q 576.80 1637.10 573.07 1639.32
  C 567.58 1642.57 568.60 1651.29 571.29 1655.71
  A 1.45 1.39 83.7 0 0 572.01 1656.31
  C 577.78 1658.45 586.14 1657.53 592.29 1657.45
  Q 595.02 1657.42 597.01 1655.54
  L 601.26 1651.54
  A 0.72 0.72 0.0 0 1 602.21 1651.50
  L 609.18 1657.19
  A 1.46 1.45 64.2 0 0 610.09 1657.51
  L 616.88 1657.49
  Q 617.54 1657.48 617.03 1657.06
  L 605.78 1647.93
  A 0.48 0.48 0.0 0 1 605.76 1647.21
  Z
  M 663.75 1651.49
  L 663.75 1625.00
  A 0.50 0.50 0.0 0 1 664.25 1624.50
  L 689.37 1624.50
  A 0.63 0.62 -0.0 0 1 690.00 1625.12
  L 690.00 1632.58
  A 0.52 0.52 0.0 0 0 690.60 1633.09
  L 695.87 1632.26
  A 0.63 0.62 88.9 0 0 696.40 1631.70
  C 696.80 1627.75 696.64 1620.25 691.50 1619.69
  Q 681.55 1618.61 664.24 1619.49
  Q 657.56 1619.83 657.40 1626.58
  Q 657.13 1638.03 657.28 1649.52
  C 657.40 1657.99 662.82 1657.35 669.91 1657.47
  Q 679.49 1657.63 689.05 1657.37
  C 696.94 1657.14 696.77 1651.23 696.48 1644.45
  A 0.70 0.70 0.0 0 0 695.92 1643.80
  L 690.57 1642.72
  A 0.48 0.47 -84.1 0 0 690.00 1643.19
  L 690.00 1651.39
  A 0.65 0.65 0.0 0 1 689.35 1652.04
  L 664.24 1651.98
  A 0.49 0.49 0.0 0 1 663.75 1651.49
  Z
  M 712.62 1646.69
  C 712.91 1653.55 712.90 1657.36 721.26 1657.45
  Q 735.41 1657.61 749.56 1657.49
  Q 755.85 1657.44 756.55 1652.02
  Q 757.21 1646.92 756.69 1626.19
  C 756.57 1621.52 753.88 1619.78 749.35 1619.55
  Q 734.64 1618.81 719.92 1619.55
  C 715.97 1619.75 713.14 1621.19 712.84 1625.31
  Q 712.13 1634.96 712.62 1646.69
  Z
  M 782.18 1627.91
  Q 797.70 1642.46 813.65 1656.53
  C 814.92 1657.65 816.27 1657.89 817.77 1657.27
  A 0.80 0.78 78.9 0 0 818.25 1656.54
  L 818.25 1619.75
  A 0.50 0.50 0.0 0 0 817.75 1619.25
  L 812.83 1619.25
  A 0.67 0.67 0.0 0 0 812.16 1619.92
  L 812.46 1648.27
  Q 812.46 1648.52 812.27 1648.35
  Q 796.96 1634.21 781.30 1620.45
  C 779.60 1618.95 778.71 1618.97 776.57 1619.44
  A 0.69 0.69 0.0 0 0 776.03 1620.11
  L 776.01 1656.91
  A 0.59 0.59 0.0 0 0 776.60 1657.50
  L 781.26 1657.50
  A 0.77 0.76 0.0 0 0 782.03 1656.74
  L 782.02 1627.98
  Q 782.02 1627.76 782.18 1627.91
  Z
  M 870.52 1641.32
  L 870.66 1651.45
  A 0.62 0.61 89.5 0 1 870.05 1652.08
  L 842.77 1652.03
  A 0.52 0.51 -0.0 0 1 842.25 1651.52
  L 842.25 1646.67
  A 0.53 0.53 0.0 0 0 841.60 1646.15
  L 837.13 1647.17
  A 0.78 0.77 -2.3 0 0 836.54 1647.80
  Q 835.04 1656.87 844.03 1657.45
  Q 848.72 1657.75 869.32 1657.33
  Q 876.13 1657.19 876.27 1650.52
  C 876.40 1644.16 877.65 1635.36 869.68 1635.32
  Q 856.90 1635.25 844.05 1635.19
  A 0.55 0.55 0.0 0 1 843.50 1634.64
  L 843.50 1625.13
  A 0.63 0.62 -90.0 0 1 844.12 1624.50
  L 869.87 1624.50
  A 0.63 0.63 0.0 0 1 870.50 1625.13
  L 870.50 1629.55
  A 0.42 0.42 0.0 0 0 871.03 1629.95
  L 875.31 1628.76
  A 0.74 0.72 87.6 0 0 875.83 1628.18
  C 876.86 1622.11 873.48 1619.81 867.79 1619.52
  Q 855.80 1618.92 843.83 1619.64
  C 836.47 1620.08 837.29 1629.55 838.17 1634.84
  C 838.95 1639.56 841.10 1640.52 845.81 1640.61
  Q 857.89 1640.83 870.00 1640.81
  A 0.52 0.52 0.0 0 1 870.52 1641.32
  Z
  M 896.19 1619.31
  L 895.88 1619.21
  A 0.24 0.24 0.0 0 0 895.57 1619.44
  Q 895.36 1637.76 895.58 1650.31
  C 895.69 1656.80 900.25 1657.44 905.50 1657.46
  Q 921.51 1657.49 928.53 1657.35
  C 934.80 1657.23 936.01 1653.75 936.01 1648.25
  Q 936.02 1634.02 935.98 1619.77
  A 0.52 0.52 0.0 0 0 935.46 1619.25
  L 930.25 1619.25
  A 0.50 0.50 0.0 0 0 929.75 1619.75
  L 929.75 1651.54
  A 0.48 0.48 0.0 0 1 929.27 1652.02
  L 902.60 1652.01
  A 0.60 0.60 0.0 0 1 902.00 1651.41
  L 902.00 1620.11
  A 0.88 0.87 89.4 0 0 901.11 1619.23
  L 896.43 1619.31
  Q 896.20 1619.31 896.19 1619.31
  Z
  M 991.00 1652.71
  A 0.45 0.45 0.0 0 0 990.55 1652.26
  L 962.70 1652.20
  A 0.45 0.45 0.0 0 1 962.25 1651.75
  L 962.25 1619.70
  A 0.45 0.45 0.0 0 0 961.80 1619.25
  L 956.20 1619.25
  A 0.45 0.45 0.0 0 0 955.75 1619.70
  L 955.75 1657.05
  A 0.45 0.45 0.0 0 0 956.20 1657.50
  L 990.55 1657.50
  A 0.45 0.45 0.0 0 0 991.00 1657.05
  L 991.00 1652.71
  Z
  M 1003.90 1624.50
  A 0.35 0.35 0.0 0 1 1004.25 1624.85
  L 1004.25 1657.15
  A 0.35 0.35 0.0 0 0 1004.60 1657.50
  L 1010.35 1657.50
  A 0.35 0.35 0.0 0 0 1010.70 1657.15
  L 1010.74 1624.85
  A 0.35 0.35 0.0 0 1 1011.09 1624.50
  L 1027.81 1624.50
  A 0.35 0.35 0.0 0 0 1028.16 1624.15
  L 1028.15 1619.64
  A 0.35 0.35 0.0 0 0 1027.80 1619.29
  L 987.10 1619.25
  A 0.35 0.35 0.0 0 0 986.75 1619.60
  L 986.75 1624.15
  A 0.35 0.35 0.0 0 0 987.10 1624.50
  L 1003.90 1624.50
  Z
  M 1062.59 1648.00
  A 0.41 0.41 0.0 0 1 1062.96 1648.22
  L 1067.75 1657.28
  A 0.41 0.41 0.0 0 0 1068.12 1657.50
  L 1074.20 1657.50
  A 0.41 0.41 0.0 0 0 1074.56 1656.89
  L 1053.75 1619.46
  A 0.41 0.41 0.0 0 0 1053.39 1619.25
  L 1047.14 1619.25
  A 0.41 0.41 0.0 0 0 1046.78 1619.46
  L 1026.31 1656.89
  A 0.41 0.41 0.0 0 0 1026.67 1657.50
  L 1032.03 1657.50
  A 0.41 0.41 0.0 0 0 1032.40 1657.28
  L 1037.15 1648.22
  A 0.41 0.41 0.0 0 1 1037.52 1648.00
  L 1062.59 1648.00
  Z
  M 1093.13 1627.69
  Q 1093.99 1628.67 1094.95 1629.54
  Q 1109.66 1643.01 1124.40 1656.45
  C 1125.81 1657.73 1127.04 1657.83 1128.78 1657.34
  A 0.64 0.64 0.0 0 0 1129.25 1656.72
  L 1129.25 1619.88
  A 0.63 0.63 0.0 0 0 1128.62 1619.25
  L 1123.71 1619.25
  A 0.53 0.53 0.0 0 0 1123.18 1619.79
  L 1123.41 1648.54
  Q 1123.42 1648.88 1123.18 1648.64
  C 1113.42 1638.70 1102.59 1629.60 1092.19 1620.32
  C 1090.69 1618.98 1089.29 1618.94 1087.46 1619.42
  A 0.62 0.62 0.0 0 0 1087.00 1620.02
  L 1087.00 1656.87
  A 0.63 0.63 0.0 0 0 1087.63 1657.50
  L 1092.39 1657.50
  A 0.65 0.65 0.0 0 0 1093.04 1656.85
  L 1092.92 1627.77
  Q 1092.92 1627.45 1093.13 1627.69
  Z
  M 1180.99 1625.16
  L 1181.02 1632.01
  A 1.09 1.09 0.0 0 0 1182.32 1633.07
  L 1186.82 1632.20
  A 0.75 0.75 0.0 0 0 1187.42 1631.53
  C 1187.90 1625.58 1188.07 1620.00 1180.31 1619.62
  Q 1167.66 1619.00 1155.01 1619.50
  C 1148.14 1619.78 1148.20 1626.31 1148.29 1631.28
  Q 1148.42 1638.99 1148.38 1646.68
  C 1148.35 1651.53 1148.78 1656.89 1153.82 1657.25
  Q 1162.75 1657.90 1180.07 1657.37
  C 1188.05 1657.13 1188.12 1650.56 1187.41 1644.47
  A 0.78 0.78 0.0 0 0 1186.81 1643.81
  L 1182.11 1642.76
  A 0.88 0.88 0.0 0 0 1181.04 1643.63
  L 1181.12 1651.22
  A 1.07 1.07 0.0 0 1 1180.03 1652.31
  L 1155.22 1651.95
  A 0.48 0.47 -90.0 0 1 1154.75 1651.47
  L 1154.75 1625.11
  A 0.64 0.63 -89.6 0 1 1155.39 1624.47
  L 1180.41 1624.58
  A 0.58 0.58 0.0 0 1 1180.99 1625.16
  Z
  M 1199.37 1619.35
  L 1198.85 1619.25
  Q 1197.77 1619.03 1198.51 1619.85
  L 1217.11 1640.53
  A 1.51 1.47 24.5 0 1 1217.50 1641.53
  L 1217.50 1657.00
  A 0.50 0.50 0.0 0 0 1218.00 1657.50
  L 1223.34 1657.50
  A 0.59 0.58 -0.5 0 0 1223.93 1656.91
  L 1223.83 1642.51
  Q 1223.82 1640.80 1224.97 1639.53
  L 1242.80 1619.69
  Q 1243.18 1619.27 1242.61 1619.26
  L 1235.77 1619.24
  A 1.10 1.10 0.0 0 0 1234.92 1619.64
  L 1221.46 1635.67
  A 0.73 0.72 44.3 0 1 1220.36 1635.68
  L 1206.46 1619.82
  A 1.17 1.17 0.0 0 0 1205.58 1619.42
  L 1200.10 1619.43
  Q 1199.73 1619.43 1199.37 1619.35
  Z"
/>
<path fill="#b3b3b3" d="
  M 806.37 252.58
  L 802.27 256.72
  A 0.83 0.83 0.0 0 1 801.09 256.72
  L 759.19 214.81
  A 1.33 1.32 45.2 0 1 759.19 212.94
  L 914.46 57.66
  Q 914.96 57.17 914.26 57.19
  C 905.76 57.44 895.63 57.01 888.82 57.01
  Q 488.72 56.97 88.62 57.02
  C 79.53 57.02 67.81 57.38 57.40 57.29
  A 0.47 0.46 -0.6 0 0 56.92 57.77
  C 57.05 62.28 56.75 67.58 56.75 71.25
  C 56.75 351.15 55.83 631.10 57.03 911.00
  Q 57.05 913.59 56.87 914.83
  Q 56.79 915.34 57.16 914.98
  L 198.24 773.88
  A 1.05 1.05 0.0 0 1 199.73 773.88
  L 411.03 985.28
  A 0.40 0.40 0.0 0 0 411.59 985.28
  L 458.19 938.70
  A 0.81 0.81 0.0 0 0 458.19 937.56
  L 170.46 649.84
  A 1.34 1.34 0.0 0 1 170.46 647.95
  L 270.29 548.25
  L 285.30 533.60
  A 1.17 1.17 0.0 0 1 286.94 533.61
  Q 433.76 680.50 580.96 827.79
  Q 611.53 858.38 642.29 888.77
  C 642.64 889.12 643.05 889.77 643.54 890.17
  A 0.56 0.55 42.1 0 0 644.28 890.14
  L 680.86 853.35
  A 0.51 0.51 0.0 0 0 680.86 852.63
  L 156.45 328.02
  A 1.32 1.32 0.0 0 1 156.45 326.16
  L 257.04 225.58
  A 0.56 0.55 41.2 0 1 257.77 225.54
  Q 264.36 230.79 269.59 237.20
  C 350.45 318.65 431.96 399.48 513.10 480.65
  Q 529.11 496.68 545.36 512.60
  A 0.60 0.59 -45.3 0 1 545.36 513.45
  L 514.28 544.42
  A 0.26 0.26 0.0 0 1 513.86 544.32
  L 513.75 544.03
  Q 513.56 543.51 513.17 543.12
  L 258.31 288.19
  A 0.62 0.61 44.7 0 0 257.44 288.19
  L 218.77 326.61
  A 0.55 0.55 0.0 0 0 218.75 327.37
  Q 223.57 332.75 230.53 339.72
  Q 486.90 596.34 743.43 852.83
  A 0.49 0.48 -45.4 0 1 743.43 853.52
  L 644.58 952.61
  A 0.72 0.71 -45.3 0 1 643.58 952.62
  Q 629.14 938.72 615.34 924.91
  Q 450.95 760.28 286.50 595.71
  Q 286.09 595.10 285.72 595.46
  Q 258.94 621.69 232.83 648.49
  A 0.45 0.45 0.0 0 0 232.82 649.10
  Q 237.51 654.24 242.39 659.11
  Q 358.93 775.57 475.38 892.12
  C 490.56 907.31 506.34 922.11 520.96 937.83
  A 0.52 0.52 0.0 0 1 520.95 938.55
  C 484.94 975.18 448.46 1011.37 412.09 1047.66
  A 0.58 0.57 -48.6 0 1 411.33 1047.71
  Q 408.95 1045.90 404.40 1041.35
  Q 307.89 944.86 212.08 848.94
  A 0.98 0.98 0.0 0 0 210.70 848.93
  L 197.71 861.75
  Q 194.28 864.92 190.97 868.22
  Q 98.40 960.64 6.07 1053.31
  Q 4.21 1055.18 2.48 1057.16
  Q 1.54 1058.25 1.71 1056.82
  C 1.91 1055.06 1.55 1053.15 1.56 1051.66
  Q 1.74 1038.35 1.74 1010.44
  Q 1.76 520.80 1.75 31.16
  C 1.75 24.48 1.18 11.73 1.78 1.97
  A 0.50 0.50 0.0 0 1 2.28 1.50
  L 1056.13 1.50
  A 0.62 0.62 0.0 0 1 1056.75 2.07
  C 1056.81 2.74 1044.50 14.36 1043.06 15.81
  Q 924.82 134.30 806.37 252.58
  Z"
/>
<path fill="#f2f2f2" d="
  M 806.37 252.58
  Q 807.28 252.97 807.56 252.50
  Q 807.73 252.22 807.83 252.54
  L 808.04 253.25
  L 802.21 259.16
  A 0.48 0.48 0.0 0 1 801.53 259.16
  L 756.69 214.31
  A 0.79 0.79 0.0 0 1 756.69 213.19
  L 910.59 59.28
  Q 910.95 58.93 910.45 58.92
  Q 905.54 58.78 900.44 58.78
  Q 494.17 59.01 87.90 59.00
  C 81.22 59.00 68.48 58.43 58.72 59.03
  A 0.50 0.50 0.0 0 0 58.25 59.53
  L 58.25 911.25
  Q 58.25 911.88 58.69 911.44
  L 198.68 771.44
  A 0.62 0.62 0.0 0 1 199.56 771.44
  L 411.13 983.00
  A 0.52 0.52 0.0 0 0 411.87 983.00
  L 456.19 938.69
  A 0.60 0.60 0.0 0 0 456.24 937.90
  Q 454.49 935.64 453.30 934.45
  Q 373.13 854.17 167.96 649.12
  A 0.49 0.48 45.4 0 1 167.96 648.43
  L 269.25 547.21
  Q 270.36 547.14 270.29 548.25
  L 170.46 647.95
  A 1.34 1.34 0.0 0 0 170.46 649.84
  L 458.19 937.56
  A 0.81 0.81 0.0 0 1 458.19 938.70
  L 411.59 985.28
  A 0.40 0.40 0.0 0 1 411.03 985.28
  L 199.73 773.88
  A 1.05 1.05 0.0 0 0 198.24 773.88
  L 57.16 914.98
  Q 56.79 915.34 56.87 914.83
  Q 57.05 913.59 57.03 911.00
  C 55.83 631.10 56.75 351.15 56.75 71.25
  C 56.75 67.58 57.05 62.28 56.92 57.77
  A 0.47 0.46 -0.6 0 1 57.40 57.29
  C 67.81 57.38 79.53 57.02 88.62 57.02
  Q 488.72 56.97 888.82 57.01
  C 895.63 57.01 905.76 57.44 914.26 57.19
  Q 914.96 57.17 914.46 57.66
  L 759.19 212.94
  A 1.33 1.32 45.2 0 0 759.19 214.81
  L 801.09 256.72
  A 0.83 0.83 0.0 0 0 802.27 256.72
  L 806.37 252.58
  Z"
/>
<path fill="#f2f2f2" d="
  M 271.04 236.25
  L 269.59 237.20
  Q 264.36 230.79 257.77 225.54
  A 0.56 0.55 41.2 0 0 257.04 225.58
  L 156.45 326.16
  A 1.32 1.32 0.0 0 0 156.45 328.02
  L 680.86 852.63
  A 0.51 0.51 0.0 0 1 680.86 853.35
  L 644.28 890.14
  A 0.56 0.55 42.1 0 1 643.54 890.17
  C 643.05 889.77 642.64 889.12 642.29 888.77
  Q 611.53 858.38 580.96 827.79
  Q 433.76 680.50 286.94 533.61
  A 1.17 1.17 0.0 0 0 285.30 533.60
  L 270.29 548.25
  Q 270.36 547.14 269.25 547.21
  L 285.78 530.58
  A 0.48 0.48 0.0 0 1 286.46 530.58
  L 643.80 887.94
  A 0.45 0.44 -44.6 0 0 644.43 887.94
  L 678.81 853.56
  A 0.62 0.61 45.3 0 0 678.81 852.69
  L 153.78 327.33
  A 0.49 0.48 45.4 0 1 153.78 326.64
  L 257.42 222.97
  A 0.36 0.36 0.0 0 1 257.94 222.97
  L 271.04 236.25
  Z"
/>
<path fill="#f2f2f2" d="
  M 271.04 236.25
  C 362.91 328.68 455.54 420.40 547.61 512.64
  A 0.47 0.47 0.0 0 1 547.61 513.31
  L 514.68 546.18
  A 0.44 0.44 0.0 0 1 514.06 546.18
  L 258.05 290.18
  A 0.45 0.45 0.0 0 0 257.41 290.18
  L 220.88 326.77
  A 0.52 0.51 -45.4 0 0 220.88 327.50
  L 746.12 852.74
  A 0.52 0.52 0.0 0 1 746.12 853.47
  L 644.67 954.90
  A 0.79 0.79 0.0 0 1 643.55 954.90
  L 286.21 597.50
  Q 285.39 596.15 286.50 595.71
  Q 450.95 760.28 615.34 924.91
  Q 629.14 938.72 643.58 952.62
  A 0.72 0.71 -45.3 0 0 644.58 952.61
  L 743.43 853.52
  A 0.49 0.48 -45.4 0 0 743.43 852.83
  Q 486.90 596.34 230.53 339.72
  Q 223.57 332.75 218.75 327.37
  A 0.55 0.55 0.0 0 1 218.77 326.61
  L 257.44 288.19
  A 0.62 0.61 44.7 0 1 258.31 288.19
  L 513.17 543.12
  Q 513.56 543.51 513.75 544.03
  L 513.86 544.32
  A 0.26 0.26 0.0 0 0 514.28 544.42
  L 545.36 513.45
  A 0.60 0.59 -45.3 0 0 545.36 512.60
  Q 529.11 496.68 513.10 480.65
  C 431.96 399.48 350.45 318.65 269.59 237.20
  L 271.04 236.25
  Z"
/>
<path fill="#f2f2f2" d="
  M 974.50 776.04
  L 460.96 262.25
  Q 461.19 261.80 461.67 261.71
  A 1.00 0.98 -27.2 0 1 462.54 261.98
  C 600.18 399.27 737.78 536.64 874.88 674.47
  Q 881.10 680.72 889.13 688.50
  Q 933.08 731.05 974.50 776.04
  Z"
/>
<path fill="#f2f2f2" d="
  M 286.50 595.71
  Q 285.39 596.15 286.21 597.50
  L 235.06 648.44
  A 0.54 0.53 45.4 0 0 235.06 649.19
  L 523.50 937.62
  A 0.54 0.54 0.0 0 1 523.50 938.38
  L 411.69 1050.19
  A 0.45 0.45 0.0 0 1 411.06 1050.19
  L 211.48 850.54
  A 0.48 0.47 44.6 0 0 210.81 850.54
  L 198.50 862.79
  L 198.03 862.87
  A 0.36 0.36 0.0 0 1 197.62 862.47
  L 197.71 861.75
  L 210.70 848.93
  A 0.98 0.98 0.0 0 1 212.08 848.94
  Q 307.89 944.86 404.40 1041.35
  Q 408.95 1045.90 411.33 1047.71
  A 0.58 0.57 -48.6 0 0 412.09 1047.66
  C 448.46 1011.37 484.94 975.18 520.95 938.55
  A 0.52 0.52 0.0 0 0 520.96 937.83
  C 506.34 922.11 490.56 907.31 475.38 892.12
  Q 358.93 775.57 242.39 659.11
  Q 237.51 654.24 232.82 649.10
  A 0.45 0.45 0.0 0 1 232.83 648.49
  Q 258.94 621.69 285.72 595.46
  Q 286.09 595.10 286.50 595.71
  Z"
/>
<path fill="#f2f2f2" d="
  M 229.04 979.25
  Q 228.62 979.60 228.06 979.69
  A 0.93 0.90 -23.4 0 1 227.19 979.36
  Q 223.83 975.21 219.44 972.08
  A 1.04 1.04 0.0 0 0 218.10 972.20
  Q 118.86 1071.23 19.93 1170.43
  C 19.32 1171.04 18.69 1171.10 17.96 1170.75
  L 219.07 969.58
  A 0.47 0.47 0.0 0 1 219.74 969.59
  L 229.04 979.25
  Z"
/>
<path fill="#f2f2f2" d="
  M 70.19 1505.72
  A 0.59 0.59 0.0 0 0 70.78 1506.31
  L 208.17 1506.23
  A 0.59 0.58 90.0 0 0 208.75 1505.64
  L 208.75 1450.82
  A 0.33 0.32 -0.0 0 0 208.42 1450.50
  Q 149.97 1450.52 91.50 1450.46
  C 77.38 1450.45 58.76 1448.94 52.71 1433.56
  C 46.81 1418.53 48.25 1399.82 48.66 1383.82
  C 49.36 1356.95 60.38 1346.67 87.25 1346.35
  Q 141.87 1345.69 196.50 1346.30
  C 226.15 1346.64 235.98 1362.29 234.45 1390.44
  A 0.73 0.73 0.0 0 1 233.92 1391.10
  L 208.60 1398.32
  A 0.49 0.48 82.0 0 1 207.98 1397.85
  L 208.01 1372.13
  A 0.63 0.63 0.0 0 0 207.38 1371.50
  L 76.56 1371.50
  A 0.31 0.31 0.0 0 0 76.25 1371.81
  L 76.25 1423.05
  A 0.45 0.45 0.0 0 0 76.70 1423.50
  Q 136.80 1423.49 197.00 1423.50
  Q 209.44 1423.50 219.18 1427.28
  C 232.77 1432.55 235.64 1446.51 236.36 1459.44
  Q 237.42 1478.50 236.23 1497.54
  C 235.53 1508.56 232.84 1522.52 221.44 1527.50
  Q 210.76 1532.16 200.06 1532.18
  Q 141.03 1532.32 82.00 1532.26
  C 76.12 1532.25 69.54 1531.31 64.40 1530.23
  C 42.08 1525.52 40.34 1502.21 41.31 1483.53
  A 0.69 0.67 -5.7 0 1 41.84 1482.90
  L 69.62 1476.48
  A 0.41 0.41 0.0 0 1 70.12 1476.88
  L 70.19 1505.72
  Z"
/>
<path fill="#f2f2f2" d="
  M 474.14 1486.80
  C 463.94 1486.51 453.71 1486.65 443.50 1486.69
  C 412.10 1486.83 380.69 1486.52 349.28 1486.77
  A 0.87 0.86 -76.5 0 0 348.51 1487.25
  L 325.30 1531.81
  A 0.82 0.81 -76.0 0 1 324.58 1532.25
  L 295.09 1532.25
  A 0.46 0.46 0.0 0 1 294.69 1531.57
  L 395.56 1346.69
  A 0.88 0.87 14.4 0 1 396.33 1346.24
  L 428.85 1346.26
  A 0.85 0.84 -14.3 0 1 429.59 1346.69
  L 532.30 1531.67
  A 0.39 0.39 0.0 0 1 531.96 1532.25
  L 498.81 1532.27
  A 0.81 0.80 75.7 0 1 498.10 1531.84
  L 474.91 1487.28
  A 0.88 0.88 0.0 0 0 474.14 1486.80
  Z
  M 362.11 1462.26
  A 0.34 0.34 0.0 0 0 362.41 1462.75
  L 461.27 1462.75
  A 0.34 0.34 0.0 0 0 461.57 1462.26
  L 412.14 1368.22
  A 0.34 0.34 0.0 0 0 411.54 1368.22
  L 362.11 1462.26
  Z"
/>
<path fill="#f2f2f2" d="
  M 736.37 1486.80
  C 694.82 1486.25 653.04 1486.36 611.49 1486.74
  A 0.87 0.85 -76.2 0 0 610.75 1487.20
  L 587.44 1531.90
  A 0.68 0.67 -76.2 0 1 586.84 1532.27
  L 557.03 1532.24
  A 0.31 0.31 0.0 0 1 556.76 1531.79
  L 657.49 1347.14
  A 1.81 1.80 -75.3 0 1 659.09 1346.20
  L 690.96 1346.28
  A 1.05 1.03 75.0 0 1 691.86 1346.81
  L 794.49 1531.67
  A 0.41 0.40 75.5 0 1 794.14 1532.27
  L 761.03 1532.24
  A 0.88 0.87 75.6 0 1 760.26 1531.78
  L 737.12 1487.27
  A 0.88 0.86 76.5 0 0 736.37 1486.80
  Z
  M 624.30 1462.25
  A 0.34 0.34 0.0 0 0 624.60 1462.75
  L 723.48 1462.75
  A 0.34 0.34 0.0 0 0 723.78 1462.25
  L 674.34 1368.22
  A 0.34 0.34 0.0 0 0 673.74 1368.22
  L 624.30 1462.25
  Z"
/>
<path fill="#f2f2f2" d="
  M 896.98 1428.44
  L 965.56 1346.87
  A 1.75 1.74 11.5 0 1 966.38 1346.33
  C 968.80 1345.62 971.52 1346.22 973.36 1346.24
  Q 988.62 1346.37 1003.74 1345.95
  Q 1004.39 1345.93 1003.96 1346.41
  L 911.00 1450.10
  A 1.37 1.36 -24.3 0 0 910.65 1451.01
  L 910.45 1531.77
  A 0.47 0.46 -0.0 0 1 909.98 1532.23
  L 880.02 1532.28
  A 0.52 0.51 -0.0 0 1 879.50 1531.77
  L 879.50 1451.77
  A 1.90 1.89 24.3 0 0 879.02 1450.51
  L 785.45 1346.48
  Q 785.15 1346.14 785.61 1346.14
  L 823.49 1346.26
  A 1.14 1.14 0.0 0 1 824.35 1346.65
  L 896.09 1428.45
  A 0.59 0.59 0.0 0 0 896.98 1428.44
  Z"
/>
<path fill="#f2f2f2" d="
  M 1048.81 1486.91
  L 1025.27 1532.10
  A 0.31 0.31 0.0 0 1 1024.99 1532.27
  L 994.95 1532.24
  A 0.31 0.31 0.0 0 1 994.68 1531.78
  L 1095.86 1346.34
  A 0.31 0.31 0.0 0 1 1096.13 1346.18
  L 1129.30 1346.28
  A 0.31 0.31 0.0 0 1 1129.57 1346.44
  L 1232.48 1531.80
  A 0.31 0.31 0.0 0 1 1232.21 1532.26
  L 1198.63 1532.26
  A 0.31 0.31 0.0 0 1 1198.35 1532.09
  L 1174.86 1486.92
  A 0.31 0.31 0.0 0 0 1174.58 1486.75
  L 1049.09 1486.74
  A 0.31 0.31 0.0 0 0 1048.81 1486.91
  Z
  M 1062.22 1462.25
  A 0.34 0.34 0.0 0 0 1062.52 1462.75
  L 1161.40 1462.75
  A 0.34 0.34 0.0 0 0 1161.70 1462.25
  L 1112.26 1368.20
  A 0.34 0.34 0.0 0 0 1111.66 1368.20
  L 1062.22 1462.25
  Z"
/>
<path fill="#000000" d="
  M 362.11 1462.26
  L 411.54 1368.22
  A 0.34 0.34 0.0 0 1 412.14 1368.22
  L 461.57 1462.26
  A 0.34 0.34 0.0 0 1 461.27 1462.75
  L 362.41 1462.75
  A 0.34 0.34 0.0 0 1 362.11 1462.26
  Z"
/>
<path fill="#000000" d="
  M 1062.22 1462.25
  L 1111.66 1368.20
  A 0.34 0.34 0.0 0 1 1112.26 1368.20
  L 1161.70 1462.25
  A 0.34 0.34 0.0 0 1 1161.40 1462.75
  L 1062.52 1462.75
  A 0.34 0.34 0.0 0 1 1062.22 1462.25
  Z"
/>
<path fill="#000000" d="
  M 624.30 1462.25
  L 673.74 1368.22
  A 0.34 0.34 0.0 0 1 674.34 1368.22
  L 723.78 1462.25
  A 0.34 0.34 0.0 0 1 723.48 1462.75
  L 624.60 1462.75
  A 0.34 0.34 0.0 0 1 624.30 1462.25
  Z"
/>
<rect fill="#999999" x="24.35" y="1573.23" width="479.60" height="13.02" rx="6.31"/>
<rect fill="#999999" x="751.71" y="1573.02" width="500.06" height="13.24" rx="6.58"/>
<circle fill="#999999" cx="530.58" cy="1579.75" r="6.55"/>
<circle fill="#999999" cx="578.93" cy="1579.75" r="6.55"/>
<circle fill="#999999" cx="627.33" cy="1579.73" r="6.56"/>
<circle fill="#999999" cx="675.69" cy="1579.74" r="6.55"/>
<circle fill="#999999" cx="724.07" cy="1579.75" r="6.55"/>
<path fill="#b3b3b3" d="
  M 70.03 1648.02
  L 44.84 1647.99
  A 0.33 0.33 0.0 0 0 44.55 1648.17
  L 39.74 1657.32
  A 0.33 0.33 0.0 0 1 39.45 1657.50
  L 33.90 1657.50
  A 0.33 0.33 0.0 0 1 33.61 1657.01
  L 54.13 1619.42
  A 0.33 0.33 0.0 0 1 54.42 1619.25
  L 60.80 1619.25
  A 0.33 0.33 0.0 0 1 61.08 1619.42
  L 81.96 1657.02
  A 0.33 0.33 0.0 0 1 81.67 1657.51
  L 75.33 1657.50
  A 0.33 0.33 0.0 0 1 75.04 1657.32
  L 70.32 1648.20
  A 0.33 0.33 0.0 0 0 70.03 1648.02
  Z
  M 47.63 1642.55
  A 0.31 0.31 0.0 0 0 47.90 1643.00
  L 66.98 1643.00
  A 0.31 0.31 0.0 0 0 67.25 1642.55
  L 57.71 1624.47
  A 0.31 0.31 0.0 0 0 57.17 1624.47
  L 47.63 1642.55
  Z"
/>
<path fill="#b3b3b3" d="
  M 120.33 1643.29
  L 136.26 1656.92
  Q 136.92 1657.48 136.06 1657.49
  L 127.95 1657.51
  A 1.21 1.20 -22.8 0 1 127.11 1657.17
  L 112.19 1642.84
  A 1.25 1.23 66.4 0 0 111.34 1642.50
  L 101.25 1642.50
  A 0.50 0.50 0.0 0 0 100.75 1643.00
  L 100.75 1657.00
  A 0.50 0.50 0.0 0 1 100.25 1657.50
  L 95.08 1657.50
  A 0.69 0.69 0.0 0 1 94.39 1656.82
  L 94.22 1619.99
  A 0.62 0.62 0.0 0 1 94.83 1619.37
  Q 108.45 1619.07 121.79 1619.17
  C 134.47 1619.26 133.01 1623.48 133.02 1633.88
  C 133.03 1644.35 127.97 1641.71 120.49 1642.75
  Q 119.80 1642.84 120.33 1643.29
  Z
  M 124.89 1624.87
  Q 123.91 1624.50 122.87 1624.50
  L 101.25 1624.50
  A 0.50 0.50 0.0 0 0 100.75 1625.00
  L 100.75 1637.00
  A 0.51 0.50 90.0 0 0 101.25 1637.51
  L 124.14 1637.49
  Q 126.49 1637.48 126.50 1635.13
  C 126.51 1632.86 127.42 1625.82 124.89 1624.87
  Z"
/>
<path fill="#b3b3b3" d="
  M 182.75 1651.74
  L 182.75 1643.19
  A 0.52 0.52 0.0 0 1 183.38 1642.68
  L 188.52 1643.78
  A 0.79 0.78 -88.5 0 1 189.14 1644.44
  C 189.66 1648.47 189.83 1657.05 183.75 1657.28
  Q 172.55 1657.69 157.42 1657.36
  Q 150.37 1657.20 150.32 1650.28
  Q 150.22 1638.24 150.26 1626.26
  C 150.28 1621.43 153.10 1619.82 157.68 1619.56
  Q 171.08 1618.79 183.43 1619.57
  C 189.35 1619.94 189.71 1626.24 189.22 1631.54
  A 0.71 0.71 0.0 0 1 188.65 1632.17
  L 183.29 1633.24
  A 0.46 0.45 84.3 0 1 182.75 1632.79
  L 182.75 1625.00
  A 0.50 0.50 0.0 0 0 182.25 1624.50
  L 157.00 1624.50
  A 0.50 0.50 0.0 0 0 156.50 1625.00
  L 156.50 1651.31
  A 0.62 0.62 0.0 0 0 157.12 1651.93
  L 182.26 1652.23
  A 0.49 0.48 -89.4 0 0 182.75 1651.74
  Z"
/>
<path fill="#b3b3b3" d="
  M 242.25 1634.41
  L 242.25 1619.81
  A 0.56 0.56 0.0 0 1 242.81 1619.25
  L 248.19 1619.25
  A 0.56 0.56 0.0 0 1 248.75 1619.81
  L 248.75 1656.94
  A 0.56 0.56 0.0 0 1 248.19 1657.50
  L 242.81 1657.50
  A 0.56 0.56 0.0 0 1 242.25 1656.94
  L 242.25 1640.81
  A 0.56 0.56 0.0 0 0 241.69 1640.25
  L 212.79 1640.25
  A 0.56 0.56 0.0 0 0 212.23 1640.81
  L 212.30 1656.94
  A 0.56 0.56 0.0 0 1 211.74 1657.50
  L 206.56 1657.50
  A 0.56 0.56 0.0 0 1 206.00 1656.94
  L 206.00 1619.81
  A 0.56 0.56 0.0 0 1 206.56 1619.25
  L 211.74 1619.25
  A 0.56 0.56 0.0 0 1 212.30 1619.81
  L 212.22 1634.46
  A 0.56 0.56 0.0 0 0 212.78 1635.02
  L 241.69 1634.97
  A 0.56 0.56 0.0 0 0 242.25 1634.41
  Z"
/>
<rect fill="#b3b3b3" x="268.50" y="1619.26" width="6.50" height="38.24" rx="0.52"/>
<path fill="#b3b3b3" d="
  M 309.50 1624.84
  L 309.50 1657.16
  A 0.34 0.34 0.0 0 1 309.16 1657.50
  L 303.33 1657.50
  A 0.34 0.34 0.0 0 1 302.99 1657.16
  L 303.02 1624.84
  A 0.34 0.34 0.0 0 0 302.68 1624.50
  L 286.03 1624.50
  A 0.34 0.34 0.0 0 1 285.69 1624.16
  L 285.71 1619.60
  A 0.34 0.34 0.0 0 1 286.05 1619.26
  L 326.66 1619.29
  A 0.34 0.34 0.0 0 1 327.00 1619.63
  L 327.00 1624.16
  A 0.34 0.34 0.0 0 1 326.66 1624.50
  L 309.84 1624.50
  A 0.34 0.34 0.0 0 0 309.50 1624.84
  Z"
/>
<path fill="#b3b3b3" d="
  M 344.39 1635.00
  L 362.11 1635.00
  A 0.39 0.39 0.0 0 1 362.50 1635.39
  L 362.50 1639.64
  A 0.39 0.39 0.0 0 1 362.11 1640.03
  L 344.39 1639.99
  A 0.39 0.39 0.0 0 0 344.00 1640.38
  L 344.00 1651.86
  A 0.39 0.39 0.0 0 0 344.39 1652.25
  L 374.11 1652.25
  A 0.39 0.39 0.0 0 1 374.50 1652.64
  L 374.50 1657.11
  A 0.39 0.39 0.0 0 1 374.11 1657.50
  L 337.89 1657.50
  A 0.39 0.39 0.0 0 1 337.50 1657.11
  L 337.50 1619.64
  A 0.39 0.39 0.0 0 1 337.89 1619.25
  L 373.86 1619.25
  A 0.39 0.39 0.0 0 1 374.25 1619.64
  L 374.25 1624.11
  A 0.39 0.39 0.0 0 1 373.86 1624.50
  L 344.39 1624.50
  A 0.39 0.39 0.0 0 0 344.00 1624.89
  L 344.00 1634.61
  A 0.39 0.39 0.0 0 0 344.39 1635.00
  Z"
/>
<path fill="#b3b3b3" d="
  M 396.22 1651.94
  L 421.49 1652.13
  A 0.49 0.49 0.0 0 0 421.99 1651.64
  L 422.01 1643.18
  A 0.47 0.47 0.0 0 1 422.57 1642.72
  L 427.82 1643.77
  A 0.66 0.65 -83.7 0 1 428.34 1644.43
  C 428.28 1650.78 428.94 1657.31 421.31 1657.49
  Q 400.57 1657.97 394.74 1657.28
  Q 389.67 1656.67 389.50 1650.93
  Q 389.15 1638.60 389.29 1626.26
  C 389.34 1621.49 392.10 1619.80 396.67 1619.55
  Q 409.62 1618.83 422.56 1619.71
  C 428.81 1620.13 428.64 1627.02 428.28 1631.58
  A 0.72 0.70 86.9 0 1 427.71 1632.23
  L 422.51 1633.20
  A 0.44 0.43 85.0 0 1 422.00 1632.77
  L 422.00 1625.13
  A 0.63 0.63 0.0 0 0 421.37 1624.50
  L 396.25 1624.50
  A 0.50 0.50 0.0 0 0 395.75 1625.00
  L 395.75 1651.47
  A 0.47 0.47 0.0 0 0 396.22 1651.94
  Z"
/>
<path fill="#b3b3b3" d="
  M 436.00 1624.10
  L 435.99 1619.68
  A 0.40 0.40 0.0 0 1 436.39 1619.28
  L 476.85 1619.35
  A 0.40 0.40 0.0 0 1 477.25 1619.75
  L 477.25 1624.10
  A 0.40 0.40 0.0 0 1 476.85 1624.50
  L 460.15 1624.50
  A 0.40 0.40 0.0 0 0 459.75 1624.90
  L 459.75 1657.10
  A 0.40 0.40 0.0 0 1 459.35 1657.50
  L 453.90 1657.50
  A 0.40 0.40 0.0 0 1 453.50 1657.10
  L 453.50 1624.90
  A 0.40 0.40 0.0 0 0 453.10 1624.50
  L 436.40 1624.50
  A 0.40 0.40 0.0 0 1 436.00 1624.10
  Z"
/>
<path fill="#b3b3b3" d="
  M 520.00 1624.50
  L 494.14 1624.50
  A 0.60 0.59 -0.9 0 0 493.54 1625.11
  L 493.75 1634.71
  A 0.53 0.53 0.0 0 0 494.28 1635.23
  Q 506.50 1635.22 518.74 1635.31
  Q 524.82 1635.35 526.17 1640.52
  C 526.85 1643.10 527.18 1653.04 524.34 1655.68
  C 521.07 1658.72 504.75 1657.54 499.87 1657.50
  C 492.09 1657.42 485.33 1657.96 486.56 1647.89
  A 0.80 0.79 -3.2 0 1 487.16 1647.22
  L 491.72 1646.13
  A 0.43 0.42 -7.0 0 1 492.25 1646.54
  L 492.25 1651.60
  A 0.60 0.60 0.0 0 0 492.85 1652.20
  L 520.07 1652.23
  A 0.62 0.62 0.0 0 0 520.69 1651.62
  L 520.74 1641.37
  A 0.54 0.53 1.1 0 0 520.21 1640.83
  C 511.34 1640.70 500.84 1641.74 492.24 1640.21
  C 486.69 1639.23 487.84 1629.31 488.20 1625.19
  C 488.55 1621.19 490.89 1619.76 494.82 1619.54
  Q 506.35 1618.89 517.86 1619.52
  C 523.47 1619.82 526.83 1621.93 526.00 1627.99
  A 0.84 0.82 -5.1 0 1 525.42 1628.67
  L 521.08 1630.01
  A 0.45 0.45 0.0 0 1 520.50 1629.58
  L 520.50 1625.00
  A 0.50 0.50 0.0 0 0 520.00 1624.50
  Z"
/>
<path fill="#b3b3b3" d="
  M 605.78 1647.93
  L 617.03 1657.06
  Q 617.54 1657.48 616.88 1657.49
  L 610.09 1657.51
  A 1.46 1.45 64.2 0 1 609.18 1657.19
  L 602.21 1651.50
  A 0.72 0.72 0.0 0 0 601.26 1651.54
  L 597.01 1655.54
  Q 595.02 1657.42 592.29 1657.45
  C 586.14 1657.53 577.78 1658.45 572.01 1656.31
  A 1.45 1.39 83.7 0 1 571.29 1655.71
  C 568.60 1651.29 567.58 1642.57 573.07 1639.32
  Q 576.80 1637.10 580.34 1634.60
  A 0.47 0.46 -37.6 0 0 580.43 1633.93
  Q 576.53 1629.26 578.56 1623.25
  C 580.49 1617.51 594.20 1619.27 598.72 1619.88
  Q 601.27 1620.23 602.10 1622.66
  Q 603.13 1625.65 602.67 1628.82
  A 0.60 0.59 89.4 0 1 602.18 1629.33
  L 598.17 1630.01
  A 0.36 0.35 -4.9 0 1 597.75 1629.67
  L 597.75 1624.62
  A 0.63 0.62 -0.0 0 0 597.12 1624.00
  L 583.90 1624.00
  A 0.57 0.57 0.0 0 0 583.33 1624.59
  L 583.47 1629.13
  A 1.11 1.08 -72.1 0 0 583.87 1629.94
  L 601.32 1644.30
  A 0.62 0.61 -46.8 0 0 602.14 1644.27
  L 610.17 1636.79
  A 0.67 0.66 -44.7 0 1 611.08 1636.79
  L 613.45 1639.05
  A 0.62 0.62 0.0 0 1 613.45 1639.95
  L 605.76 1647.21
  A 0.48 0.48 0.0 0 0 605.78 1647.93
  Z
  M 597.65 1648.37
  A 0.38 0.38 0.0 0 0 597.63 1647.79
  L 584.69 1637.46
  A 0.38 0.38 0.0 0 0 584.24 1637.44
  L 574.91 1644.02
  A 0.38 0.38 0.0 0 0 574.75 1644.33
  L 574.75 1652.12
  A 0.38 0.38 0.0 0 0 575.13 1652.50
  L 592.89 1652.50
  A 0.38 0.38 0.0 0 0 593.15 1652.40
  L 597.65 1648.37
  Z"
/>
<path fill="#b3b3b3" d="
  M 664.24 1651.98
  L 689.35 1652.04
  A 0.65 0.65 0.0 0 0 690.00 1651.39
  L 690.00 1643.19
  A 0.48 0.47 -84.1 0 1 690.57 1642.72
  L 695.92 1643.80
  A 0.70 0.70 0.0 0 1 696.48 1644.45
  C 696.77 1651.23 696.94 1657.14 689.05 1657.37
  Q 679.49 1657.63 669.91 1657.47
  C 662.82 1657.35 657.40 1657.99 657.28 1649.52
  Q 657.13 1638.03 657.40 1626.58
  Q 657.56 1619.83 664.24 1619.49
  Q 681.55 1618.61 691.50 1619.69
  C 696.64 1620.25 696.80 1627.75 696.40 1631.70
  A 0.63 0.62 88.9 0 1 695.87 1632.26
  L 690.60 1633.09
  A 0.52 0.52 0.0 0 1 690.00 1632.58
  L 690.00 1625.12
  A 0.63 0.62 -0.0 0 0 689.37 1624.50
  L 664.25 1624.50
  A 0.50 0.50 0.0 0 0 663.75 1625.00
  L 663.75 1651.49
  A 0.49 0.49 0.0 0 0 664.24 1651.98
  Z"
/>
<path fill="#b3b3b3" d="
  M 721.26 1657.45
  C 712.90 1657.36 712.91 1653.55 712.62 1646.69
  Q 712.13 1634.96 712.84 1625.31
  C 713.14 1621.19 715.97 1619.75 719.92 1619.55
  Q 734.64 1618.81 749.35 1619.55
  C 753.88 1619.78 756.57 1621.52 756.69 1626.19
  Q 757.21 1646.92 756.55 1652.02
  Q 755.85 1657.44 749.56 1657.49
  Q 735.41 1657.61 721.26 1657.45
  Z
  M 750.26 1624.90
  A 0.26 0.26 0.0 0 0 750.00 1624.64
  L 719.44 1624.64
  A 0.26 0.26 0.0 0 0 719.18 1624.90
  L 719.18 1651.74
  A 0.26 0.26 0.0 0 0 719.44 1652.00
  L 750.00 1652.00
  A 0.26 0.26 0.0 0 0 750.26 1651.74
  L 750.26 1624.90
  Z"
/>
<path fill="#b3b3b3" d="
  M 782.02 1627.98
  L 782.03 1656.74
  A 0.77 0.76 -0.0 0 1 781.26 1657.50
  L 776.60 1657.50
  A 0.59 0.59 0.0 0 1 776.01 1656.91
  L 776.03 1620.11
  A 0.69 0.69 0.0 0 1 776.57 1619.44
  C 778.71 1618.97 779.60 1618.95 781.30 1620.45
  Q 796.96 1634.21 812.27 1648.35
  Q 812.46 1648.52 812.46 1648.27
  L 812.16 1619.92
  A 0.67 0.67 0.0 0 1 812.83 1619.25
  L 817.75 1619.25
  A 0.50 0.50 0.0 0 1 818.25 1619.75
  L 818.25 1656.54
  A 0.80 0.78 78.9 0 1 817.77 1657.27
  C 816.27 1657.89 814.92 1657.65 813.65 1656.53
  Q 797.70 1642.46 782.18 1627.91
  Q 782.02 1627.76 782.02 1627.98
  Z"
/>
<path fill="#b3b3b3" d="
  M 870.00 1640.81
  Q 857.89 1640.83 845.81 1640.61
  C 841.10 1640.52 838.95 1639.56 838.17 1634.84
  C 837.29 1629.55 836.47 1620.08 843.83 1619.64
  Q 855.80 1618.92 867.79 1619.52
  C 873.48 1619.81 876.86 1622.11 875.83 1628.18
  A 0.74 0.72 87.6 0 1 875.31 1628.76
  L 871.03 1629.95
  A 0.42 0.42 0.0 0 1 870.50 1629.55
  L 870.50 1625.13
  A 0.63 0.63 0.0 0 0 869.87 1624.50
  L 844.12 1624.50
  A 0.63 0.62 -90.0 0 0 843.50 1625.13
  L 843.50 1634.64
  A 0.55 0.55 0.0 0 0 844.05 1635.19
  Q 856.90 1635.25 869.68 1635.32
  C 877.65 1635.36 876.40 1644.16 876.27 1650.52
  Q 876.13 1657.19 869.32 1657.33
  Q 848.72 1657.75 844.03 1657.45
  Q 835.04 1656.87 836.54 1647.80
  A 0.78 0.77 -2.3 0 1 837.13 1647.17
  L 841.60 1646.15
  A 0.53 0.53 0.0 0 1 842.25 1646.67
  L 842.25 1651.52
  A 0.52 0.51 0.0 0 0 842.77 1652.03
  L 870.05 1652.08
  A 0.62 0.61 89.5 0 0 870.66 1651.45
  L 870.52 1641.32
  A 0.52 0.52 0.0 0 0 870.00 1640.81
  Z"
/>
<path fill="#b3b3b3" d="
  M 896.43 1619.31
  L 901.11 1619.23
  A 0.88 0.87 89.4 0 1 902.00 1620.11
  L 902.00 1651.41
  A 0.60 0.60 0.0 0 0 902.60 1652.01
  L 929.27 1652.02
  A 0.48 0.48 0.0 0 0 929.75 1651.54
  L 929.75 1619.75
  A 0.50 0.50 0.0 0 1 930.25 1619.25
  L 935.46 1619.25
  A 0.52 0.52 0.0 0 1 935.98 1619.77
  Q 936.02 1634.02 936.01 1648.25
  C 936.01 1653.75 934.80 1657.23 928.53 1657.35
  Q 921.51 1657.49 905.50 1657.46
  C 900.25 1657.44 895.69 1656.80 895.58 1650.31
  Q 895.36 1637.76 895.57 1619.44
  A 0.24 0.24 0.0 0 1 895.88 1619.21
  L 896.19 1619.31
  Q 896.20 1619.31 896.43 1619.31
  Z"
/>
<path fill="#b3b3b3" d="
  M 991.00 1652.71
  L 991.00 1657.05
  A 0.45 0.45 0.0 0 1 990.55 1657.50
  L 956.20 1657.50
  A 0.45 0.45 0.0 0 1 955.75 1657.05
  L 955.75 1619.70
  A 0.45 0.45 0.0 0 1 956.20 1619.25
  L 961.80 1619.25
  A 0.45 0.45 0.0 0 1 962.25 1619.70
  L 962.25 1651.75
  A 0.45 0.45 0.0 0 0 962.70 1652.20
  L 990.55 1652.26
  A 0.45 0.45 0.0 0 1 991.00 1652.71
  Z"
/>
<path fill="#b3b3b3" d="
  M 1003.90 1624.50
  L 987.10 1624.50
  A 0.35 0.35 0.0 0 1 986.75 1624.15
  L 986.75 1619.60
  A 0.35 0.35 0.0 0 1 987.10 1619.25
  L 1027.80 1619.29
  A 0.35 0.35 0.0 0 1 1028.15 1619.64
  L 1028.16 1624.15
  A 0.35 0.35 0.0 0 1 1027.81 1624.50
  L 1011.09 1624.50
  A 0.35 0.35 0.0 0 0 1010.74 1624.85
  L 1010.70 1657.15
  A 0.35 0.35 0.0 0 1 1010.35 1657.50
  L 1004.60 1657.50
  A 0.35 0.35 0.0 0 1 1004.25 1657.15
  L 1004.25 1624.85
  A 0.35 0.35 0.0 0 0 1003.90 1624.50
  Z"
/>
<path fill="#b3b3b3" d="
  M 1062.59 1648.00
  L 1037.52 1648.00
  A 0.41 0.41 0.0 0 0 1037.15 1648.22
  L 1032.40 1657.28
  A 0.41 0.41 0.0 0 1 1032.03 1657.50
  L 1026.67 1657.50
  A 0.41 0.41 0.0 0 1 1026.31 1656.89
  L 1046.78 1619.46
  A 0.41 0.41 0.0 0 1 1047.14 1619.25
  L 1053.39 1619.25
  A 0.41 0.41 0.0 0 1 1053.75 1619.46
  L 1074.56 1656.89
  A 0.41 0.41 0.0 0 1 1074.20 1657.50
  L 1068.12 1657.50
  A 0.41 0.41 0.0 0 1 1067.75 1657.28
  L 1062.96 1648.22
  A 0.41 0.41 0.0 0 0 1062.59 1648.00
  Z
  M 1040.40 1642.52
  A 0.34 0.34 0.0 0 0 1040.70 1643.02
  L 1059.54 1642.99
  A 0.34 0.34 0.0 0 0 1059.84 1642.49
  L 1050.39 1624.52
  A 0.34 0.34 0.0 0 0 1049.79 1624.52
  L 1040.40 1642.52
  Z"
/>
<path fill="#b3b3b3" d="
  M 1092.92 1627.77
  L 1093.04 1656.85
  A 0.65 0.65 0.0 0 1 1092.39 1657.50
  L 1087.63 1657.50
  A 0.63 0.63 0.0 0 1 1087.00 1656.87
  L 1087.00 1620.02
  A 0.62 0.62 0.0 0 1 1087.46 1619.42
  C 1089.29 1618.94 1090.69 1618.98 1092.19 1620.32
  C 1102.59 1629.60 1113.42 1638.70 1123.18 1648.64
  Q 1123.42 1648.88 1123.41 1648.54
  L 1123.18 1619.79
  A 0.53 0.53 0.0 0 1 1123.71 1619.25
  L 1128.62 1619.25
  A 0.63 0.63 0.0 0 1 1129.25 1619.88
  L 1129.25 1656.72
  A 0.64 0.64 0.0 0 1 1128.78 1657.34
  C 1127.04 1657.83 1125.81 1657.73 1124.40 1656.45
  Q 1109.66 1643.01 1094.95 1629.54
  Q 1093.99 1628.67 1093.13 1627.69
  Q 1092.92 1627.45 1092.92 1627.77
  Z"
/>
<path fill="#b3b3b3" d="
  M 1180.41 1624.58
  L 1155.39 1624.47
  A 0.64 0.63 -89.6 0 0 1154.75 1625.11
  L 1154.75 1651.47
  A 0.48 0.47 90.0 0 0 1155.22 1651.95
  L 1180.03 1652.31
  A 1.07 1.07 0.0 0 0 1181.12 1651.22
  L 1181.04 1643.63
  A 0.88 0.88 0.0 0 1 1182.11 1642.76
  L 1186.81 1643.81
  A 0.78 0.78 0.0 0 1 1187.41 1644.47
  C 1188.12 1650.56 1188.05 1657.13 1180.07 1657.37
  Q 1162.75 1657.90 1153.82 1657.25
  C 1148.78 1656.89 1148.35 1651.53 1148.38 1646.68
  Q 1148.42 1638.99 1148.29 1631.28
  C 1148.20 1626.31 1148.14 1619.78 1155.01 1619.50
  Q 1167.66 1619.00 1180.31 1619.62
  C 1188.07 1620.00 1187.90 1625.58 1187.42 1631.53
  A 0.75 0.75 0.0 0 1 1186.82 1632.20
  L 1182.32 1633.07
  A 1.09 1.09 0.0 0 1 1181.02 1632.01
  L 1180.99 1625.16
  A 0.58 0.58 0.0 0 0 1180.41 1624.58
  Z"
/>
<path fill="#b3b3b3" d="
  M 1200.10 1619.43
  L 1205.58 1619.42
  A 1.17 1.17 0.0 0 1 1206.46 1619.82
  L 1220.36 1635.68
  A 0.73 0.72 44.3 0 0 1221.46 1635.67
  L 1234.92 1619.64
  A 1.10 1.10 0.0 0 1 1235.77 1619.24
  L 1242.61 1619.26
  Q 1243.18 1619.27 1242.80 1619.69
  L 1224.97 1639.53
  Q 1223.82 1640.80 1223.83 1642.51
  L 1223.93 1656.91
  A 0.59 0.58 -0.5 0 1 1223.34 1657.50
  L 1218.00 1657.50
  A 0.50 0.50 0.0 0 1 1217.50 1657.00
  L 1217.50 1641.53
  A 1.51 1.47 24.5 0 0 1217.11 1640.53
  L 1198.51 1619.85
  Q 1197.77 1619.03 1198.85 1619.25
  L 1199.37 1619.35
  Q 1199.73 1619.43 1200.10 1619.43
  Z"
/>
<path fill="#000000" d="
  M 1040.40 1642.52
  L 1049.79 1624.52
  A 0.34 0.34 0.0 0 1 1050.39 1624.52
  L 1059.84 1642.49
  A 0.34 0.34 0.0 0 1 1059.54 1642.99
  L 1040.70 1643.02
  A 0.34 0.34 0.0 0 1 1040.40 1642.52
  Z"
/>
<path fill="#000000" d="
  M 47.63 1642.55
  L 57.17 1624.47
  A 0.31 0.31 0.0 0 1 57.71 1624.47
  L 67.25 1642.55
  A 0.31 0.31 0.0 0 1 66.98 1643.00
  L 47.90 1643.00
  A 0.31 0.31 0.0 0 1 47.63 1642.55
  Z"
/>
<path fill="#000000" d="
  M 124.89 1624.87
  C 127.42 1625.82 126.51 1632.86 126.50 1635.13
  Q 126.49 1637.48 124.14 1637.49
  L 101.25 1637.51
  A 0.51 0.50 90.0 0 1 100.75 1637.00
  L 100.75 1625.00
  A 0.50 0.50 0.0 0 1 101.25 1624.50
  L 122.87 1624.50
  Q 123.91 1624.50 124.89 1624.87
  Z"
/>
<rect fill="#000000" x="719.18" y="1624.64" width="31.08" height="27.36" rx="0.26"/>
<path fill="#000000" d="
  M 597.65 1648.37
  L 593.15 1652.40
  A 0.38 0.38 0.0 0 1 592.89 1652.50
  L 575.13 1652.50
  A 0.38 0.38 0.0 0 1 574.75 1652.12
  L 574.75 1644.33
  A 0.38 0.38 0.0 0 1 574.91 1644.02
  L 584.24 1637.44
  A 0.38 0.38 0.0 0 1 584.69 1637.46
  L 597.63 1647.79
  A 0.38 0.38 0.0 0 1 597.65 1648.37
  Z"
/>
</svg>
